<?xml version="1.0" encoding="utf-8"?>
<!-- Generator: Adobe Illustrator 24.3.0, SVG Export Plug-In . SVG Version: 6.00 Build 0)  -->
<svg version="1.1" id="Layer_1" xmlns="http://www.w3.org/2000/svg" xmlns:xlink="http://www.w3.org/1999/xlink" x="0px" y="0px"
	 viewBox="0 0 2571 631" enable-background="new 0 0 2571 631" xml:space="preserve">
<path fill="#181D23" d="M2567.7,631c10.1-12,20.2-25.9,26.6-39.9V575c-5.5,13.3-14.1,26.5-23.6,38.5c2.9-6.9,4.8-13.7,4.9-20.2
	c9.6-7.6,16.5-15.2,18.6-22.5v-1.5c-4.7,5.8-11.1,11.5-18.7,17.1c2.6-6.1,4.1-12.1,4.3-17.8c-3.5,8.2-8.5,16.5-14.5,24.7
	c-2.7,1.8-5.5,3.5-8.4,5.2c14.5-36.3,22.8-80.6,0.6-115.7c7.8,31,2,63.6-8.8,92.8c0-1.5-0.2-3-0.6-4.5c-1.8,6-5.7,11.9-10.8,17.8
	c0.4-4.8,0.2-9.4-1-13.8c-0.4,3.6-1.2,7.1-2.2,10.7c1.5-29.7-4.4-63.6-29.5-90.6c15.4,28.1,18.1,58.2,15.6,84.7
	c-1-3.9-2.2-7.8-3.6-11.6c5.3-16.1,4.5-32.7-8-47.5c2.9,10.3,2.4,20.7-0.3,30.9c-0.1-0.2-0.3-0.5-0.5-0.7
	c-0.5-16.5-4.4-32.6-13.6-47.2c7.3,28.7,2.7,58.9-6.6,86.4c-2.7,3.5-5.5,6.8-8.4,10c7-19.4,9.4-39.8,1-57.2
	c1.1,10.5,0,21.2-2.6,31.8c-0.5-16.1-7.1-33.1-25.9-47.9c5.6,7.9,9.1,15.8,11.1,23.7c-4.7-12.1-11.6-23.8-21.5-34.4
	c10.3,18.9,14.9,38.7,16.1,57.7c-1.7-3-3.8-6-6.4-8.9c0.7-11.2-2.3-22.4-11-32.7c1.9,6.6,2.3,13.3,1.7,19.9
	c-0.2-0.3-0.4-0.5-0.6-0.8c0.2,0.5,0.3,0.9,0.5,1.4c-0.4,4-1.3,8-2.4,12c-1.3-1.6-2.6-3.1-4-4.6c1.2,2.2,2.3,4.5,3.3,6.7
	c-1.4,4.2-3.2,8.4-5.2,12.6c-0.9-4.4-2.2-8.6-4.2-12.7c0.7,7,0.5,14.2-0.6,21.3c-1.9,3.1-4,6.2-6.2,9.2c-0.3-2.3-0.6-4.6-1-6.9
	c5.7-10.8,7.4-22,1.1-32.1c0.4,6.2-1,12.4-3.7,18.5c-7.3-32-23.3-66.9-56.2-94.8c18.2,23.3,29.1,48,35.3,71.4
	c-3.8-5.2-8.6-10.3-14.7-15.1c5.9,8.2,9.4,16.5,11.3,24.6c-3-2.9-6.1-5.8-9.6-8.5c3.9,4.6,7.4,9.3,10.5,14
	c0.7,5.2,0.7,10.3,0.3,15.3c-1.6-3-3.5-5.9-5.7-8.8c1.4,3.6,2.5,7.1,3.4,10.8c-0.6-1.2-1.2-2.5-1.8-3.7c-1.2-6.7-4.5-13.2-10.7-19.3
	c-14.3-23.1-34.7-46.7-63.6-66c29.7,27.4,48.1,57.3,59.4,83.8c-7.6-9.8-16.6-19.4-27.3-28.3c-9.1-16.4-21.4-32.4-38-46.5
	c7.2,9.2,13.2,18.6,18.2,28c-7.3-7.6-16.3-15.1-27.4-22c13.7,13,22.6,26.4,28.2,39.3c-4.3,5-9.4,9.9-15.2,14.8
	c-12.8-16.2-28.9-31.9-49.2-45.4c5.9,5.4,11.3,10.9,16.3,16.5c-6.4-4.5-13.5-8.9-21.3-13.1c0.3-12.3-2.9-24.5-11.1-35.8
	c3.2,13.1,2.3,26.3-1.1,39.2c-0.8-0.5-1.7-1.1-2.6-1.6c0.8,0.8,1.6,1.5,2.4,2.3c-2.8,10.3-7.4,20.4-12.8,29.9
	c-5.2-4.2-10.9-8.3-17.2-12.3c-1.6-17.2-8.6-34.9-25.6-50.4c8.8,14.3,12.4,28.9,12.8,42.9c-2.8-1.5-5.7-3-8.7-4.5
	c3,2,5.9,4.1,8.7,6.2c0.1,8-0.9,15.8-2.5,23.2c-1.9-8-5.4-16-11.1-23.6c0.7-13.1-2.3-26.1-11-38.1c5.3,21.7-0.6,43.9-11.1,64.1
	c-1.7-0.8-3.5-1.6-5.3-2.4c3.7-10.7,4-21.5-1.3-31.4c0.5,9.4-2.1,18.9-6.5,28.1c0,0-0.1,0-0.1-0.1c0.1-0.3,0.2-0.5,0.2-0.8
	c-2.1,2-4.4,4-7,6c-0.4-19-6.9-39.1-25.9-56.5c12.5,20.2,14.6,41.2,11.8,60.1c-0.9-0.3-1.9-0.7-2.8-1c0.2-10.7-2.9-21.5-11.7-31.2
	c2.8,6.4,4,12.9,4.1,19.4c-2.9-4.4-6.6-8.7-11-12.8c5.3,8.7,8.3,17.5,9.8,26.1c-0.7,3.6-1.7,7-2.9,10.4c-0.9-1.1-1.8-2.2-2.8-3.2
	c0.9,1.7,1.6,3.4,2.2,5.1c-0.2,0.6-0.4,1.1-0.7,1.7c-0.2,0.1-0.4,0.2-0.6,0.3c-0.5-7-2.8-13.9-7.8-20.4c-0.2-5.2-1.4-10.2-4-15.1
	c0.5,10.9-2.9,21.8-8.7,32.4c-0.1-0.2-0.2-0.4-0.3-0.6c-0.8-30.7-11.9-70.6-55.4-102.2c21.9,24.2,31.7,49.5,35,72.3
	c-4.8-4.8-10.3-9.4-16.7-13.8c7.5,7.6,13.3,15.3,17.7,22.9c0.6,8,0.5,15.5-0.1,22.6c-0.5,0.4-0.9,0.7-1.4,1.1
	c-0.1-0.4-0.3-0.8-0.4-1.3c-0.3-9.9-3.6-19.8-11.7-28.8c1.3,2.9,2.2,5.8,2.8,8.7c-2.9-5.5-6.2-11.1-10.2-16.9
	c1.1-11.4-2.9-22.7-14.5-33.1c2.2,5.8,2.9,11.7,2.5,17.6c-12.7-14.7-29.6-29.2-52-42.1c23.1,18.2,38.7,37.2,49.2,55
	c-0.6,1.6-1.2,3.2-1.9,4.7c-0.2-0.2-0.4-0.4-0.6-0.6c-2-8.4-5.8-16.6-11.9-24.3c1.8,5.6,2.8,11.2,3.3,16.8c-2.6-2.1-5.3-4.1-8.1-6.1
	c-8.4-13.5-20.3-26.8-36.8-38.8c24.3,26.9,33.6,55.1,35.8,79.7c-0.5,0.6-1,1.1-1.5,1.7c-0.4-0.4-0.9-0.8-1.3-1.1
	c0.7-1.5,1.1-3,1.4-4.5c-0.7,0.9-1.4,1.7-2.2,2.6c0,0,0-0.1,0-0.1c0,0.1-0.1,0.2-0.1,0.2c-0.2,0.2-0.4,0.4-0.6,0.6
	c-5-4.2-10.5-8.4-16.6-12.4c-1.5-9.9-6.3-20-16.2-29.7c-1.6-3.1-3.6-6.2-6.2-9.1c0.4,1.5,0.8,3.1,1.1,4.6c-3.6-2.9-7.7-5.8-12.4-8.6
	c5.5,5.8,9.4,11.6,12.2,17.5c-11.3-11.2-25.3-22.1-42.5-32c18.6,14.7,32.3,29.9,42.5,44.6c-0.6,3-1.4,5.9-2.3,8.8
	c-1.3-1.1-2.7-2.2-4.1-3.3c-2.1-5.1-5-10-8.8-14.7c1.1,3.3,1.8,6.7,2.4,10c-0.1-0.1-0.3-0.2-0.4-0.3c0-0.1,0-0.2,0-0.2
	c-0.1-0.6-0.2-1.2-0.3-1.9c0-0.2-0.1-0.5-0.1-0.7c-1.4-7.1-4.7-14.1-10.3-20.7c0.2,0.9,0.5,1.8,0.7,2.7c-1.3-1.5-2.8-2.9-4.4-4.4
	c2.2,5.8,2.9,11.7,2.5,17.5c-0.9-0.5-1.7-1-2.6-1.5c0.9,0.7,1.7,1.4,2.6,2.1c-0.7,7.8-3.4,15.6-7.6,23.2c-0.2-0.2-0.4-0.3-0.6-0.5
	c-0.3-1.5-0.8-3-1.2-4.5c2-12.9-0.5-25.8-10.5-37.6c1.9,6.8,2.4,13.7,1.6,20.5c-3.7-5-8.4-9.8-14.3-14.5c6.4,8.9,10,17.9,11.7,26.8
	c-0.7-0.4-1.3-0.9-2-1.3c-0.8-1.4-1.7-2.8-2.8-4.2c0.1,0.8,0.1,1.6,0,2.3c-3.7-2.4-7.5-4.7-11.5-7.1c-1.7-3.8-4.1-7.6-7.2-11.2
	c0.8,2.7,1.3,5.4,1.6,8.1c-1.3-0.7-2.5-1.4-3.8-2.1c-2.7-2.8-5.7-5.6-9.1-8.3c1.3,1.8,2.5,3.7,3.6,5.5c-1.9-0.9-3.7-1.8-5.6-2.7
	c2.2,1.3,4.3,2.6,6.4,4c4.2,7.4,6.6,14.8,7.8,22.1c-0.1,0.4-0.1,0.7-0.2,1.1c-1.4-0.8-2.8-1.5-4.2-2.3c-4-8.2-10.8-16.3-21.3-23.9
	c-2.3-2.3-4.8-4.5-7.5-6.7c0.7,1,1.4,2,2,2.9c-0.9-0.5-1.7-1.1-2.6-1.6c2.1,2.2,4,4.5,5.7,6.7c2.4,4.4,4.2,8.9,5.4,13.3
	c-1.1-0.5-2.3-1.1-3.5-1.6c0.8,0.8,1.3,1.7,2,2.5c0.7,0.4,1.3,0.7,2,1.1c0.1,0.5,0.2,1,0.4,1.5c0,0.1,0,0.3,0,0.4
	c0,0.1,0.1,0.1,0.1,0.2c1.5,7.2,1.7,14.3,1,21.2c-0.9,2.5-2,5-3.4,7.5c-2-5.5-5.2-11-9.8-16.3c0.7-11.2-2.3-22.4-11-32.7
	c1.9,6.8,2.4,13.7,1.6,20.5c-1.1-1.4-2.2-2.8-3.4-4.2c-8.2-9.9-18.5-19.5-31.4-28.1c15,15.2,25,31.2,31.6,46.8
	c-1.1,3.3-2.4,6.6-3.9,9.8c-1.8-5.1-4.9-10.1-9.9-14.8c2.8,5.5,4,11.1,4.1,16.6c-0.8-1-1.6-2-2.5-3c0.7-6-0.3-12-3.8-17.6
	c0.2,4.1-0.3,8.2-1.5,12.3c-1-0.9-2.1-1.8-3.2-2.7c1,1.4,1.9,2.8,2.7,4.2c-0.5,1.5-1.1,3.1-1.7,4.6c-5-5.7-10.7-11.5-17-17
	c-4.1-7.4-10.1-14.6-18.7-21.3c2.8,3.9,5,7.8,6.8,11.7c-2-1.5-4.1-3-6.2-4.5c-8.4-11.8-20.4-23.4-37.3-33.9
	c7.9,7.5,14.2,15.1,19.2,22.7c-1.4-0.8-2.7-1.5-4.1-2.2c1.8,1.3,3.5,2.6,5.2,3.9c3.2,5,5.8,10,7.9,15c-0.5,0.6-1,1.2-1.6,1.8
	c-5.2-4.7-11-9.3-17.4-13.6c5.4,5.5,10.2,11.2,14.4,16.8c-3.4,3.4-7.1,6.8-11.1,10.2c-5-5.9-10.8-11.9-17.6-17.8
	c-8.1-12.2-19.9-24.2-36.7-35.1c-1.3-8.7-4.6-17.3-10.5-25.4c3.2,13.1,2.3,26.3-1.1,39.2c-0.8-0.5-1.7-1.1-2.6-1.6
	c0.8,0.8,1.6,1.5,2.4,2.3c-1.3,4.5-2.8,9-4.7,13.4c-7.9-6-16.9-11.9-27.2-17.5c0.3-12.3-2.9-24.5-11.1-35.8c1.9,8,2.4,16,1.6,23.9
	c-3.7-5.8-8.4-11.5-14.3-16.9c6.4,10.4,10,20.9,11.7,31.2c-0.1,0.3-0.1,0.6-0.2,0.9c-0.8-0.5-1.7-1.1-2.6-1.6
	c0.8,0.8,1.6,1.5,2.4,2.3c-0.7,2.7-1.6,5.3-2.5,8c-1.5-0.8-3-1.6-4.6-2.3c1.5,1,2.9,2,4.3,3c-1.3,3.5-2.7,7-4.3,10.4
	c-1.4-2.5-3.1-5.1-4.9-7.5c0.7-13.1-2.3-26.1-11-38.1c3.8,15.6,1.8,31.4-3.4,46.5c-1.2-0.8-2.3-1.5-3.6-2.3
	c-1.6-17.2-8.6-34.9-25.6-50.4c8.8,14.3,12.4,28.9,12.8,42.9c-2.8-1.5-5.7-3-8.7-4.5c3,2,5.9,4.1,8.7,6.2c0,3.3-0.1,6.6-0.4,9.9
	c-0.9,2.9-2,5.8-3.4,8.7c-2-6.4-5.2-12.8-9.8-19c0.7-13.1-2.3-26.1-11-38.1c1.9,8,2.4,16,1.6,24c-3.7-5.8-8.4-11.5-14.3-16.9
	c6.4,10.4,10,20.9,11.7,31.3c-1.2,4.7-2.8,9.3-4.6,13.8c-1.8-5.9-4.9-11.7-9.9-17.2c2.8,6.4,4,12.9,4.1,19.4
	c-0.8-1.2-1.6-2.3-2.5-3.5c0.7-7-0.3-13.9-3.8-20.5c0.2,4.8-0.3,9.6-1.5,14.3c-1-1.1-2.1-2.1-3.2-3.1c1,1.6,1.9,3.3,2.7,4.9
	c-1.1,4-2.7,8.1-4.6,12c0,0-0.1,0-0.1-0.1c0.1-0.3,0.2-0.5,0.2-0.8c-0.4,0.4-0.9,0.8-1.4,1.3c-0.5-4.2-1.7-8.4-3.9-12.4
	c0.3,5.2-0.4,10.5-1.8,15.7c-0.7-18.6-7.4-38-25.9-55c6.6,10.7,10.3,21.6,11.9,32.2c-7.4-21.6-21.9-44-48.5-63.4
	c21.9,24.2,31.7,49.5,35,72.3c-4.8-4.8-10.3-9.4-16.7-13.8c5.3,5.4,9.8,10.8,13.5,16.3c2.1,4.9,3.6,9.8,4.6,14.6c0,1.4,0,2.7,0,4.1
	c-0.7,2.9-1.5,5.7-2.5,8.4c-0.6-9.2-4-18.5-11.6-26.9c1.2,2.9,2.2,5.8,2.8,8.7c-0.5-0.9-0.9-1.8-1.4-2.7c-0.6-3.6-1.7-7.2-3.6-10.7
	c0.1,1.5,0.1,2.9,0,4.4c-1.6-2.6-3.3-5.3-5.1-7.9c1.1-11.4-2.9-22.7-14.5-33.1c2.2,5.8,2.9,11.7,2.5,17.6c-2.5-2.9-5.2-5.7-8-8.6
	c-8.5-14.8-21-29.5-39.2-42.8c7.2,8,13.1,16.1,17.9,24.2c-6.9-5.2-14.4-10.2-22.7-14.9c11.6,9.2,21.3,18.5,29.4,27.8
	c3.6,7.9,6.2,15.8,8.1,23.4c-2.4-1.9-4.9-3.8-7.5-5.6c-8.4-13.5-20.3-26.8-36.8-38.8c6.9,7.6,12.6,15.4,17.3,23.1
	c-1.5-1.8-3.3-3.6-5.3-5.4c2.2,5.8,2.9,11.7,2.5,17.6c-12.7-14.7-29.6-29.3-52-42.1c23.1,18.2,38.7,37.2,49.2,55
	c-0.5,1.3-1,2.6-1.5,3.9c-5-9.6-13.9-19.1-28.3-27.9c-7.1-8.4-15.7-16.5-26.2-24.2c7.2,8,13.1,16.1,17.9,24.2
	c-6.9-5.2-14.4-10.2-22.7-14.9c11.6,9.2,21.3,18.5,29.4,27.8c3.6,7.9,6.2,15.8,8,23.4c-2.6-2.1-5.3-4.1-8.2-6.1c0-0.1,0-0.1,0-0.2
	c-0.1-0.7-0.2-1.4-0.3-2.1c0-0.2-0.1-0.4-0.1-0.5c-1.4-7.1-4.7-14.1-10.3-20.8c0.3,0.9,0.5,1.8,0.7,2.7c-1.3-1.5-2.8-2.9-4.4-4.4
	c2.2,5.8,2.9,11.7,2.5,17.5c-0.9-0.5-1.7-1-2.6-1.5c0.9,0.7,1.7,1.4,2.6,2.1c-0.2,2.4-0.6,4.8-1.2,7.2c-4.8-10.6-14.1-21-30.1-30.6
	c5.5,5.8,9.4,11.6,12.1,17.5c-9.5-9.4-20.9-18.6-34.4-27.2c-3-2.2-6.2-4.5-9.8-6.6c5.6,5.9,9.6,11.9,12.3,17.9
	c-3-1.6-6.2-3.2-9.5-4.8c4,2.9,7.7,5.8,11.1,8.7c2,5.4,2.9,10.8,3,16c0,0-0.1,0-0.1-0.1c-2.7-2.8-5.7-5.6-9.1-8.3
	c1.3,1.8,2.5,3.7,3.6,5.5c-1.9-0.9-3.7-1.8-5.6-2.7c2.2,1.3,4.3,2.6,6.4,4c0.8,1.5,1.6,3,2.3,4.5c-2.6,1.2-5.2,2.4-7.7,3.7
	c-2.2-2.4-4.7-4.9-7.5-7.3c0.3-6-0.7-11.9-3.6-17.7c0.4-2.2,1.1-4.5,1.9-6.7c-1.3,1.2-2.6,2.3-3.7,3.5c-2.3-3.7-5.3-7.2-9.2-10.7
	c2.5,6.6,3.1,13.3,2.2,19.9c-2.8,5-4.2,10.1-4.4,15.2c-0.1,0.2-0.2,0.5-0.3,0.7c-4.1-2.3-8.3-4.6-12.9-6.8c-1-0.9-1.9-1.8-3-2.7
	c0.5-1.7,1.2-3.4,1.9-5.1c2.3-1.8,4.7-3.6,7.3-5.4c-2.1,1-4.2,2-6.2,2.9c2.8-5.7,6.8-11.4,12.3-17c-11.5,6.7-19.7,13.8-25.2,21.2
	c-2.6-1.1-5.2-2.3-8-3.4c5.5-3.2,11.4-6.4,17.8-9.6c-7.4,2.7-14.3,5.5-20.9,8.3c-2.3-0.9-4.6-1.8-7-2.7c2,1.1,4,2.1,6,3.2
	c-4.3,1.9-8.3,3.8-12.3,5.7c-5.3-6.4-12.6-12.6-22.4-18.5c7.1,7.5,11.7,15.1,14.2,22.7c-4.1,2.2-7.9,4.3-11.6,6.5
	c-1.7-1.7-3.6-3.3-5.8-4.9c1.6-0.9,3.3-1.9,5-2.8c-1.9,0.7-3.7,1.5-5.5,2.2c-4.8-11.2-6.1-22.6-1.7-34c-2.8,2.4-5.2,4.9-7.2,7.5
	c-14.5,6.8-26.2,14.1-35.7,21.5c-0.9-1.3-1.8-2.6-2.8-3.9c1.2-0.9,2.4-1.9,3.6-2.8c-1.4,0.7-2.8,1.4-4.1,2.1
	c-1.6-2.1-3.4-4.1-5.3-6.2c1-0.6,2-1.1,3.1-1.7c-1.1,0.4-2.3,0.9-3.4,1.4c-2-2.2-4.2-4.4-6.6-6.5c-2.1-6.4-6.2-12.6-12.9-18.6
	c1.2,3.3,2,6.6,2.3,9.9c-8.9-6.6-19.6-13.1-32.5-19.2c14.3,10.3,24.7,20.9,32.1,31.3c-0.8,4.4-2.2,8.9-4.1,13.2
	c-4.9,2.6-9.5,5.2-13.9,7.9c-6.7-5.8-14.5-11.7-23.5-17.4c4-3.8,8.3-7.5,13.2-11.2c-5.9,3-11.4,6.1-16.3,9.3
	c-8.4-5.2-17.8-10.2-28.4-15.1c-1.3-0.8-2.6-1.7-4-2.5c0.4,0.4,0.7,0.8,1.1,1.2c-6.5-2.9-13.5-5.8-20.9-8.6c9.7,5,18.4,10,26.2,15.1
	c4.8,6.7,7.8,13.4,9.3,20c-10.7-10.2-25.2-20.1-44.5-29.3c5.5,4,10.5,8,14.9,12c2.8,12-0.1,24-6.5,35.6c-4.8-3.8-10.1-7.7-16-11.5
	c-0.5-0.9-1.1-1.7-1.8-2.6c0.5-0.6,1-1.1,1.5-1.7c-0.6,0.4-1.3,0.8-1.9,1.2c0-0.1-0.1-0.1-0.1-0.2c0,0.1,0,0.2,0,0.2
	c-0.4,0.3-0.8,0.5-1.2,0.8c-1.9-1.2-3.9-2.4-5.9-3.6c0.1-0.2,0.1-0.4,0.2-0.6c-0.2,0.1-0.3,0.3-0.5,0.4
	c-13.3-7.8-28.9-15.3-47.5-22.2c11.3,5.8,21.3,11.7,30,17.6c-2.2,1.3-4.2,2.7-6.2,4c-5.1-5.7-11.9-11.3-20.8-16.7
	c6.9,7.3,11.4,14.6,14,21.9c-3.7,3.1-6.7,6.3-9.3,9.5c-2.2-2.6-4.9-5.1-8.3-7.5c2.7,4,4.3,8.1,5,12.2c-0.6,0.9-1.1,1.7-1.6,2.6
	c-2.1-1.9-4.5-3.8-7.2-5.6c-0.4-7.4,0.7-14.8,3.8-22c-8,7.4-12.3,15.5-14,23.9c-2.2-0.9-4.5-1.8-6.8-2.7c3.4-7.1,5.2-14.3,5-21.4
	c1.4-1.8,2.8-3.5,4.4-5.3c-1.6,1-3.1,2.1-4.6,3.1c-0.9-9-5.3-17.8-14.5-26.1c5.4,14.6,1.9,29.5-6.6,43.6c-1.2-0.4-2.4-0.8-3.6-1.2
	c-1.9-3.2-4-6.5-6.5-9.7c0.4-3.3,1.1-6.6,2.4-9.8c-2.2,1.9-4,3.8-5.7,5.7c-11.2-13.1-27.9-26.2-52.7-37.9
	c13.1,9.4,22.9,19.1,30.1,28.6c-2.8,3.2-5,6.6-6.6,10c-5.4-8-13.7-15.9-26-23.2c11.8,12.4,16.5,25.2,16.9,37.4
	c-5.9-5.1-12.6-10.3-20.3-15.4c-2.3-5.7-6.2-11.3-12.2-16.7c1.3,3.5,2.1,7,2.4,10.5c-13.6-8.1-29.8-16-49.2-23.2
	c20.5,10.5,36.5,21.4,49.1,32c-0.4,3.5-1.2,7-2.4,10.5c-2.3-1.2-4.7-2.3-7.1-3.5c-11.1-11.6-26.7-22.9-48.6-33.3
	c26.5,19.1,39.5,38.9,44.8,57.1c-2.1,2.9-4.4,5.8-6.8,8.7c-1.8-0.9-3.6-1.9-5.5-2.8c6.5-10.2,8-20.6,0.1-30.1c0.2,2.5,0,5-0.5,7.6
	c-1.6-7.7-6-15.2-13.9-22.3c4.4,11.7,2.9,23.6-2.2,35.1c-0.3-0.4-0.6-0.8-0.9-1.2c0,0.4,0.1,0.8,0.1,1.2c-0.5-0.4-1-0.9-1.5-1.3
	c-3.1-13.4-12.7-27-32.9-39.1c8,8.4,12.7,17,15.1,25.5c-15.7-10.6-35.5-21.1-60.6-30.4c28.7,14.7,48.6,30.1,62.4,44.6
	c0,2.2-0.2,4.3-0.5,6.4c-1.8-1.1-3.7-2.2-5.6-3.3c-1.8-6.5-6.3-12.9-14.5-18.8c3,4.6,4.7,9.3,5.2,13.9c-2.4-1.2-4.8-2.4-7.3-3.5
	c-2.1-1.6-4.5-3.1-7-4.7c0.8,0.8,1.5,1.7,2.2,2.5c-1.5-0.7-3-1.3-4.5-1.9c-5.3-6.5-12.7-12.8-22.7-18.8c8.7,9.2,13.5,18.5,15.7,27.6
	c-0.5,4-1.9,8-4,12c-3.2-1.7-6.4-3.4-9.8-5.1c-5.7-23.5-24.1-50.3-70.9-72.5c28.5,20.5,41.4,41.9,45.9,61.2
	c-0.9-0.4-1.9-0.8-2.9-1.2c-5.5-3.4-11.8-6.7-18.9-9.9c2.9,1.9,5.6,3.8,8.1,5.7c-7.4-2.7-15.1-5.3-23.3-7.9
	c-17.3-13.9-41.1-27.9-73.7-40.1c36.9,19,59.4,39,72.9,56.9c-1.1-0.4-2.3-0.7-3.5-1.1c-8.5-5.7-18.4-11.3-29.9-16.7
	c-11.1-11.6-26.7-22.9-48.6-33.3c21.7,15.7,34.4,31.8,41.2,47.2c-6.9,2.4-13.4,5-19.6,7.6c-2.2-0.6-4.5-1.2-6.8-1.9
	c-7.5-6.6-16.4-13.2-26.9-19.7c7.3-5.2,15.5-10.4,24.8-15.4c-10.5,4.1-19.9,8.6-28.4,13.2c-3.2-1.9-6.5-3.8-9.9-5.6
	c-5.4-3.8-11.4-7.5-18.2-11.1c2.3-2,4.7-3.9,7.2-5.8c-3.2,1.6-6.2,3.2-9.1,4.9c-2.7-1.4-5.5-2.8-8.4-4.2c3.5-2.2,7.2-4.3,11.1-6.4
	c-5.9,2.3-11.4,4.7-16.6,7.2c-1.7-0.7-3.4-1.3-5.1-1.9c1.5,0.8,2.9,1.5,4.4,2.3c-11.3,5.4-21.2,11.2-29.8,17.1
	c-2.4-5.1-6.1-10-11.4-14.8c1.6,4.2,2.4,8.4,2.5,12.6c-5.8-2.6-11.9-5.1-18.4-7.6c6.4-8.2,14.7-16.3,25.1-24.3
	c-28.9,14.5-45.7,31.9-55.3,49c-1.1-0.3-2.3-0.6-3.4-0.9c-5.4-7.9-13.6-15.6-25.6-22.7c8,8.5,12.8,17.1,15.1,25.6
	c-6.7-3.3-13.8-6.6-21.6-9.7c-1.3-2-2.8-4.1-4.5-6c2.5-4.5,5.8-8.9,9.8-13.3c-5,3.2-9.4,6.5-13,10c-0.4-0.4-0.9-0.8-1.3-1.2
	c0.2,0.6,0.4,1.3,0.6,1.9c-13.1,12.6-18,26.5-18.5,39.6c0-0.1-0.1-0.1-0.1-0.2c0.3-5.3-1.2-10.4-5.3-15.3c0.2,2,0.1,4.1-0.3,6.1
	c-3.9-7.8-5.8-15.9-4.4-23.7c-8.2,10-6.9,21.5-1.1,32.8c-2.3-0.8-4.6-1.7-6.9-2.5c-10.1-17.6-15-37-7.2-55.4
	c-10,9.3-14.3,19.7-14.8,30.2c-1,0.9-2,1.8-2.9,2.7c-3-2.6-6.4-5.2-10.2-7.7c2.2-10.2,7.2-20.7,16.5-30.8
	c-12.8,8.1-21,17.2-25.9,26.5c-10.4,3.7-20.1,7.6-29.2,11.6c-2-4.5-3.6-9-4.7-13.6c3.9-2.2,7.9-4.4,12.1-6.6
	c-4.3,1.7-8.4,3.5-12.4,5.3c-2.2-10.3-1.8-20.9,2.6-31.1c-12.1,11.3-15.9,24-14.6,36.9c-2.8,1.4-5.5,2.9-8.1,4.3
	c-8-8.1-18.3-16.1-31.5-23.7c6.8-6,14.4-11.9,23.2-17.8c-10.1,4.9-19.1,10.2-27.1,15.5c-3.7-2-7.6-4-11.7-5.9
	c3.4,2.5,6.6,4.9,9.6,7.4c-10.7,7.4-19.5,15.1-26.9,22.7c-6.4-3.7-13.3-7.4-20.9-11c5.7-12.1,14.4-24.5,27.3-36.7
	c-16.4,10.1-28.2,21.2-36.6,32.5c-3.2-1.4-6.5-2.8-9.9-4.1c9.9-11.3,22.7-22.9,39.5-34.2c-23.7,11.5-41.3,24.7-54.4,37.9
	c-0.5-0.3-1-0.5-1.6-0.8c0.5,0.3,0.9,0.7,1.4,1c-8.6,8.8-15.3,17.5-20.4,25.8c0.7-2.5,1.6-5,2.9-7.5c-2.7,2.5-4.9,5.1-6.6,7.8
	c-2.1-1.2-4.3-2.3-6.5-3.5c4.4-6.2,9.9-12.4,17-18.5c-6.5,3.8-12.1,7.7-16.9,11.8c3.3-19.6,13.2-41.2,35.3-62
	c-30.2,18.6-44.9,40.6-51.5,61c-6.1-2.7-12.6-5.4-19.6-8c6.7,3.5,13,7,18.8,10.5c-1.5,5.1-2.4,10.1-3,14.9c-2.6-2.3-5.4-4.6-8.6-6.8
	c-1-3.7-1.4-7.5-1.2-11.2c-1.7,2.6-2.8,5.4-3.4,8.1c-0.7-0.4-1.3-0.8-2-1.2c0.6,0.7,1.2,1.3,1.8,2c-0.3,1.3-0.4,2.7-0.5,4
	c-5.3,5.8-7.6,12.1-8,18.4c-0.4-0.8-0.8-1.7-1.2-2.5c0.6-1.5,1.3-2.9,2.2-4.4c-1.1,0.9-2,1.8-2.9,2.8c-1.2-2.9-2.3-5.9-3-9
	c1.4-7.4,4.5-15,9.9-22.4c-4.5,3.5-8.2,7.2-11.1,10.9c0.1-5.5,1.4-11.1,4.2-16.6c-9.9,9.2-12.7,19.6-11.7,29.6
	c-0.6,1.6-1.1,3.1-1.6,4.7c-4.6-17.9-3.9-38.4,10.5-58.2c-21.6,16.8-27.4,36.6-26.1,54.6c-8.7-11.1-14.4-22.9-13.7-34.7
	c-6.8,10.7-4.5,22.5,2.1,33.9c-1.5-0.5-2.9-0.9-4.4-1.4c-1.9-2.3-4-4.6-6.3-6.9c-9.3-16.4-14.2-34.2-9.2-51.6
	c-8.8,10.3-11.9,21.4-11.2,32.7c-0.4,0.5-0.9,1-1.3,1.5c-3.8-2.5-7.8-5-12.1-7.4c1.1-10.6,4.9-21.4,12.7-32.1
	c-11,8.5-17.9,17.8-21.8,27.3c-1.3-0.7-2.7-1.3-4.1-2c1.3,0.9,2.5,1.8,3.7,2.8c-4.7,11.8-4.9,23.8-2.9,34.8
	c-1.4-2.4-2.4-4.8-3.2-7.2c-0.9,3-0.8,6.1,0,9.3c-4.1-2.9-8.6-5.7-13.3-8.5c-6.3-8.9-11.5-18.3-14.7-28v33c2.7,4.4,5.7,8.7,8.9,12.8
	c-1.3-0.6-2.5-1.2-3.8-1.8c-1.6-1.7-3.3-3.3-5.1-5v28.4c0.5,0.3,1,0.6,1.5,0.9c0.1,0.4,0.2,0.7,0.3,1.1c-0.6-0.3-1.2-0.5-1.8-0.8
	v7.6c1.2,0.5,2.4,1,3.5,1.5c0.2,1.4,0.4,2.8,0.5,4.1c-1.3-0.8-2.7-1.6-4.1-2.4v5.9c1.5,1.2,3,2.4,4.4,3.6c0,1.9-0.1,3.8-0.2,5.7
	c-0.7-0.3-1.3-0.7-2-1c-0.7-1-1.4-2-2.3-3V631h177.5c2-1.5,3.9-3.1,5.9-4.7c1.4,1.6,2.7,3.2,3.8,4.7h222.5c4.7-3.3,9.8-7,14.9-11.1
	c3.7,1.6,7,3,9.8,4.2c-4.4,2.4-8.9,4.7-13.4,7h116.8c-0.2-0.2-0.3-0.4-0.5-0.5l3.4,0.1c0.1,0.1,0.2,0.3,0.4,0.4h319.3
	c0.2-0.3,0.3-0.7,0.5-1c2-0.6,4.2-1.3,6.6-2l10.4-0.9c-0.2,1.4-0.5,2.2-0.5,2.2l5-0.2c0,0.7,0,1.4,0,2h22.4
	c-0.1-0.8-0.3-1.8-0.5-2.9l8.3-0.3c-1.4,1.1-2.7,2.1-3.9,3c-0.2,0.1-0.3,0.1-0.5,0.2h46.5c0.7-2.2,1.6-5.8,2-10.3l4.5-0.2
	c1,0.4,2,0.7,3,1.1c-1,1.6-2.1,3-3.3,4.4c-2.2,2-4.3,3.7-5.9,5h21.2c1.3-0.8,2.7-1.6,4.1-2.6c2.7,1.1,4.9,2,6.3,2.6h1119.7
	c0.9-0.7,2.1-1.6,3.5-2.7c-0.3,0.5-0.5,1.1-0.8,1.6c-0.3,0.4-0.5,0.7-0.8,1.1h33.1c5.1-5.3,11-11.9,17-19.4c2.9,1.6,5.8,3.1,8.5,4.7
	c-5.9,5.3-12.3,10.2-18.7,14.7h71.2c1.6-0.7,3.3-1.5,5.1-2.4c1.2,0.8,2.5,1.6,3.7,2.4h29c-0.5-2.7-1.3-5.6-2.5-8.4
	c2.5,2.8,4.9,5.6,7.2,8.4h281.3c10.5-10.8,20-22.2,26.7-33.3c0.7-0.5,1.5-1,2.2-1.6c-3.9,11.9-11.1,23.9-19.4,34.9H2567.7z
	 M2541.7,593.4c-3,6.5-6.1,12.8-9.3,18.8c-0.5,0.2-0.9,0.5-1.4,0.7c0.1-0.8,0.3-1.5,0.4-2.3c1.4-3.2,2.6-6.5,3.6-9.7
	C2537.6,598.4,2539.8,595.9,2541.7,593.4z M2512.4,593.7c-3.9,3.1-8.1,6.2-12.7,9.3c0.6-1.9,1.2-3.8,1.7-5.7
	c3.8-5.3,7.2-10.7,10.1-16.4C2512,585.2,2512.3,589.5,2512.4,593.7z M2446.6,592.3c-0.4,4.5-1,9-1.9,13.3c-0.9-1.3-1.9-2.6-2.9-3.8
	c1,2.1,1.8,4.1,2.5,6.2c-0.3,1.3-0.6,2.6-0.9,3.8c-0.5-5-1.5-9.9-3.3-14.7c2-3.4,3.7-6.9,5.3-10.4
	C2445.8,588.6,2446.2,590.5,2446.6,592.3z M2200,627.7c0.6-0.6,1.3-1.2,2-1.9c0.2,0.2,0.4,0.5,0.6,0.7c-0.9,0.5-1.7,1-2.5,1.4
	C2200.1,627.8,2200,627.7,2200,627.7z M56.7,535.6c1.2,1.4,2.4,2.9,3.5,4.3c2.8,8.2,7.2,16.2,12.3,23.9c-5.4-1.6-10.9-3.2-16.5-4.8
	C54.7,551.5,54.7,543.6,56.7,535.6z M614.2,524.5c3.7,3.7,6.9,7.3,9.7,11c-3.4,2.1-6.7,4.2-9.7,6.3c-3.3-1.4-6.8-2.8-10.3-4.1
	c3.2,1.6,6.2,3.3,9.1,4.9c-4.8,3.4-9.3,6.9-13.3,10.3c-5.5-4.2-11.6-8.4-18.4-12.6c5.1-8,11.8-16,20.4-23.9
	C606,519.2,610.2,521.8,614.2,524.5z M2294.1,578.8c-0.8-1.9-1.7-3.8-2.6-5.7c2,2,3.9,4.1,5.7,6.2c-0.4,0.3-0.9,0.6-1.3,0.9
	C2295.3,579.7,2294.7,579.2,2294.1,578.8z M2379.3,601.2c-0.2,0.4-0.4,0.8-0.5,1.2c-0.2-0.3-0.4-0.7-0.6-1c-0.2-1.3-0.4-2.6-0.8-4
	C2378,598.7,2378.6,600,2379.3,601.2z M2370.3,587.9c0.4,1.3,0.8,2.6,1,3.9c-0.4-0.5-0.8-1-1.2-1.6
	C2370.2,589.4,2370.3,588.7,2370.3,587.9z M2371.5,603c-0.2,1.4-0.5,2.7-0.8,4.1c-0.6-1.3-1.2-2.5-2.1-3.7c0.2,1.3,0.3,2.6,0.3,3.9
	c-0.5-2.4-1-4.8-1.5-7.2c0.4-1,0.8-2,1.2-3C2369.5,599,2370.5,601,2371.5,603z M2287.7,566.1c1.2,1.1,2.3,2.1,3.4,3.2
	c-0.7-0.4-1.5-0.7-2.2-1.1C2288.5,567.5,2288.1,566.8,2287.7,566.1z M2289.2,568.6c1.4,0.9,2.7,1.8,4.1,2.7c1,1,1.9,1.9,2.8,2.9
	c-2.1-1.7-4.3-3.4-6.6-5.1C2289.4,569,2289.3,568.8,2289.2,568.6z M2301.8,584.5c0.7,0.8,1.3,1.6,2,2.4c-0.8-0.7-1.5-1.4-2.3-2.2
	C2301.5,584.7,2301.6,584.6,2301.8,584.5z M2366.1,578.4c-0.2,1.9-0.6,3.8-1.2,5.8c-1-1.1-2-2.2-3.1-3.3c-1.6-4.8-3.5-9.7-5.6-14.5
	c1.4,1.2,2.7,2.5,4.1,3.7C2362.3,572.9,2364.3,575.7,2366.1,578.4z M2337.8,601c-0.7-1.4-1.4-2.7-2.2-4.1c-0.1-0.4-0.1-0.8-0.2-1.2
	c0.9,1,1.8,1.9,2.6,2.9C2337.9,599.4,2337.9,600.2,2337.8,601z M2309.7,579.2c-0.2-0.1-0.3-0.3-0.5-0.4c0.1,0,0.1-0.1,0.2-0.1
	C2309.5,578.8,2309.6,579,2309.7,579.2z M2304.2,574.2c-4.8-4.1-10.2-8.2-16.2-12.2c1.3-3.6,2-7.1,1.9-10.5
	c6.5,7.3,11.8,14.5,16.1,21.4C2305.4,573.3,2304.8,573.8,2304.2,574.2z M2281.3,589.5c-1.6,1-3.2,1.9-4.8,2.9
	c-1.5-1.1-3.1-2.2-4.7-3.2c-0.6-0.5-1.2-1-1.8-1.5c3.2-3.2,6.2-6.6,8.8-9.9C2279.9,581.8,2280.7,585.7,2281.3,589.5z M2235.5,603.1
	c-1,0.9-2.1,1.8-3.1,2.7c-1.6-1.4-3.2-2.8-4.8-4.2c1.2-0.8,2.4-1.7,3.5-2.5C2232.6,600.4,2234.1,601.8,2235.5,603.1z M2218.4,608.7
	c0.6-0.7,1.3-1.4,1.9-2.2c0.3-0.2,0.6-0.4,1-0.6c1.7,1.7,3.3,3.4,4.9,5c-0.7,0.5-1.4,1.1-2.1,1.6
	C2222.2,611.3,2220.4,610,2218.4,608.7z M2251,604.5c0.5,0.5,0.9,1,1.3,1.5c-1.3,0.7-2.7,1.4-4,2.1c-0.3-0.3-0.6-0.5-0.9-0.8
	C2248.6,606.3,2249.8,605.4,2251,604.5z M2250.5,587.5c-0.4,0.5-0.8,1-1.2,1.5c-0.9-0.8-1.7-1.5-2.6-2.3c0.7-0.6,1.4-1.3,2.1-1.9
	C2249.4,585.7,2250,586.6,2250.5,587.5z M2245.2,593.7C2245.2,593.7,2245.1,593.8,2245.2,593.7c-1.3-0.8-2.6-1.6-3.9-2.4
	c0.4-0.3,0.7-0.6,1.1-0.9C2243.3,591.6,2244.3,592.6,2245.2,593.7z M2239.2,594c1.1,0.8,2.2,1.7,3.3,2.6c-1.2,1.2-2.5,2.5-3.8,3.7
	c-1.5-1.1-3-2.3-4.5-3.4c1.5-1.1,2.9-2.2,4.4-3.3C2238.8,593.7,2239,593.8,2239.2,594z M2216.6,585.1c-0.6-0.3-1.1-0.7-1.7-1
	c1-1.6,1.8-3.1,2.6-4.7c0.8,0.5,1.6,1,2.4,1.5C2218.8,582.3,2217.7,583.7,2216.6,585.1z M2214.2,585.2c0.5,0.4,0.9,0.7,1.4,1.1
	c-1,1.2-2,2.5-3.1,3.7c-0.2-0.2-0.4-0.3-0.6-0.5c0.2-0.6,0.4-1.3,0.7-1.9C2213.2,586.8,2213.7,586,2214.2,585.2z M2182.8,599.3
	c-0.5-0.4-1.1-0.7-1.6-1.1c0.6,0.3,1.2,0.6,1.7,0.9C2182.9,599.2,2182.9,599.3,2182.8,599.3z M2211.8,615.9c1.4,0.9,2.7,1.8,4,2.7
	c-0.6,0.5-1.3,0.9-1.9,1.3c-0.5,0.3-1,0.6-1.5,0.9c-0.7-0.3-1.3-0.6-1.9-0.9c0.6,0.3,1.1,0.7,1.7,1c-0.6,0.3-1.1,0.7-1.7,1
	c-0.8-0.7-1.5-1.5-2.3-2.2C2209.3,618.5,2210.5,617.3,2211.8,615.9z M2257.1,612.1c0.5,0.7,0.9,1.3,1.3,2c-0.8-0.5-1.6-0.9-2.4-1.4
	C2256.4,612.5,2256.8,612.3,2257.1,612.1z M2269.1,594.2c-0.3-0.4-0.5-0.8-0.8-1.2c0.9,0.9,1.7,1.8,2.6,2.7c0,0-0.1,0-0.1,0.1
	C2270.3,595.2,2269.7,594.7,2269.1,594.2z M2256.3,577.1c0.8-0.9,1.6-1.9,2.3-2.8c-0.5,1.1-1,2.2-1.6,3.3
	C2256.7,577.5,2256.5,577.3,2256.3,577.1z M2245.4,579.7c-1.2,1-2.5,2-3.7,3c-0.7-0.5-1.4-1.1-2.1-1.6c1.1-1.7,2.2-3.3,3.2-5
	C2243.7,577.3,2244.6,578.5,2245.4,579.7z M2237.8,585.7c-0.9,0.7-1.8,1.3-2.6,2c0,0,0,0,0,0c0.6-0.9,1.3-1.8,1.9-2.7
	C2237.3,585.2,2237.6,585.4,2237.8,585.7z M2220.8,579.7c-0.9-0.5-1.9-1-2.8-1.4c1.2-2.6,2.1-5.1,2.6-7.7c1.5,1.2,3,2.3,4.4,3.5
	C2223.6,576,2222.2,577.9,2220.8,579.7z M2217.4,568.2C2217.4,568.2,2217.4,568.2,2217.4,568.2
	C2217.4,568.2,2217.4,568.2,2217.4,568.2C2217.4,568.2,2217.4,568.2,2217.4,568.2z M2192,584.7c-0.1-0.8-0.2-1.6-0.4-2.3
	c-0.8,3.1-2.1,6.2-3.8,9.2c-3.7-2-7.6-4-11.5-6c2.1-3.6,4.1-7.3,5.9-11.1c3.6,2.4,7.1,4.8,10.4,7.2
	C2192.4,582.7,2192.2,583.7,2192,584.7z M2185.8,595.1c-0.5,0.8-1.1,1.6-1.6,2.5c-3.4-1.5-7-3-10.6-4.4c-0.4-0.3-0.9-0.5-1.3-0.8
	c0.8-1.3,1.6-2.6,2.4-3.9C2178.5,590.7,2182.2,592.9,2185.8,595.1z M2158.4,584.3c-1.2-0.7-2.5-1.3-3.7-2c0.8-1.1,1.5-2.3,2.2-3.4
	c1.3,0.7,2.6,1.3,3.8,2C2159.9,582,2159.1,583.1,2158.4,584.3z M217.9,529.7c0.4,0.4,0.7,0.7,1.1,1.1c-1,1.9-1.9,3.7-2.7,5.6
	c-0.8-0.9-1.8-1.9-2.7-2.8c0.9-1,1.8-1.9,2.8-2.9C216.9,530.4,217.4,530.1,217.9,529.7z M318,553.7c-0.2,0.1-0.5,0.3-0.7,0.4
	c0.1-0.6,0.1-1.2,0.1-1.8C317.6,552.8,317.8,553.2,318,553.7z M396.1,551.7c2.3,6.7,3,13.3,2.6,19.7c-1.4-0.4-2.8-0.9-4.3-1.3
	C393.9,564.2,394.3,558,396.1,551.7z M695.7,563.7c0.1,0.7,0.3,1.5,0.4,2.2c-1,0.4-2,0.9-2.9,1.3c-1.3-0.9-2.6-1.7-3.9-2.5
	c1.4-0.6,2.8-1.2,4.2-1.8C694.2,563.1,695,563.4,695.7,563.7z M805.2,579.4c0.3,0.2,0.6,0.4,0.9,0.5c-0.1,0.2-0.1,0.4-0.2,0.5
	c-0.3-0.1-0.6-0.3-0.9-0.4c0-0.1-0.1-0.2-0.1-0.3C805,579.6,805.1,579.5,805.2,579.4z M1243.3,562c0.2,0.5,0.3,1,0.6,1.5
	c0,0,0,0-0.1,0.1c-0.5-0.1-0.9-0.3-1.4-0.4C1242.7,562.7,1243,562.4,1243.3,562z M1308.8,561c0.1,0.8,0.1,1.6,0.2,2.4
	c-0.7,0.7-1.3,1.4-2,2.1c-0.3-0.6-0.6-1.3-0.9-1.9c0,0.1-0.1,0.2-0.1,0.3c0-0.5,0-1.1,0-1.6C1307,561.8,1307.9,561.4,1308.8,561z
	 M1761.1,563.6c-0.8-0.5-1.5-1-2.3-1.6c0.4-1,0.7-2,0.9-2.9C1760.3,560.6,1760.7,562.1,1761.1,563.6z M2109.8,587.1
	c0,0.1,0,0.2,0,0.4c-0.1,0-0.2,0.1-0.3,0.1C2109.6,587.4,2109.7,587.3,2109.8,587.1z M2108,599.9c-0.8,2-1.7,3.9-2.7,5.8
	c-0.3-2.7-0.7-5.4-1.3-8.3c1.7-0.8,3.5-1.6,5.2-2.4C2108.9,596.7,2108.5,598.3,2108,599.9z M916,620.9c0.3-0.9,0.7-1.8,1.1-2.8
	l6.1-0.1c-0.2,0.1-0.3,0.2-0.5,0.4c-2.2,0.8-4.2,1.6-6.1,2.3C916.4,620.8,916.2,620.9,916,620.9z M1410,569.3
	c-0.4,1.6-0.8,3.2-1.4,4.8c-0.3-0.2-0.6-0.4-1-0.6c-0.8-1.9-1.7-3.7-2.8-5.6c0.3-1.4,0.6-2.8,0.7-4.2
	C1407.1,565.6,1408.6,567.4,1410,569.3z M1583.6,579c0,0.7-0.1,1.3-0.1,1.9c-0.4-0.2-0.8-0.3-1.2-0.5c0.4-0.5,0.7-1.1,1-1.6
	C1583.4,578.9,1583.5,579,1583.6,579z M103.3,598.7c0.3,0.2,0.5,0.5,0.8,0.7c-0.1,0.2-0.3,0.3-0.4,0.5c-0.1-0.2-0.3-0.4-0.4-0.6
	C103.3,599.1,103.3,598.9,103.3,598.7z M563.1,547.2c-0.3,0.4-0.5,0.7-0.8,1.1c-0.2-0.2-0.4-0.4-0.6-0.6c0-0.1,0-0.2,0.1-0.3
	c0.3-0.2,0.6-0.3,0.9-0.5C562.8,547,562.9,547.1,563.1,547.2z M1013.1,569.3c0.3,1.1,0.6,2.3,1,3.4c-1.3-0.5-2.7-0.9-4-1.4
	c0.5-1,0.9-1.9,1.2-2.9C1011.9,568.7,1012.5,569,1013.1,569.3z M214,610.1c-1-0.9-2.2-2-3.5-3.2c1.2,0.9,2.3,1.8,3.3,2.7
	C213.9,609.8,213.9,610,214,610.1z M363.9,589.7c1,1,2,2.1,2.9,3.1c-0.3,1.7-0.7,3.3-1.2,5c-0.7-1.2-1.7-2.5-2.8-3.7
	c0.2,0.9,0.3,1.9,0.4,2.8c-1.4-0.9-2.7-1.8-4.1-2.8c1.2-1.8,2.3-3.6,3.1-5.4C362.8,589,363.3,589.3,363.9,589.7z M210.8,599.1
	c0.6,2.5,1.2,4.7,1.7,6.6c-1.6-0.9-3.2-1.8-5-2.7C208.7,601.8,209.8,600.5,210.8,599.1z M197.3,587.7
	C197.3,587.6,197.3,587.6,197.3,587.7C197.3,587.6,197.3,587.6,197.3,587.7C197.3,587.6,197.3,587.7,197.3,587.7z M321.8,595
	c-0.6-1.2-1.2-2.4-1.9-3.6c0-0.2,0-0.4,0-0.6c0.3-0.2,0.6-0.4,0.9-0.6c0.6,0.3,1.1,0.6,1.7,0.8C322.2,592.4,322,593.7,321.8,595z
	 M347.5,582.6c-0.2-1.3-0.4-2.6-0.6-3.9c0.8,0.6,1.7,1.2,2.5,1.7C348.7,581.2,348.1,581.9,347.5,582.6z M318.5,581.6
	c-0.4-0.2-0.8-0.4-1.3-0.6c-0.5-1-1.1-2.1-1.8-3.1c0.8-0.9,1.7-1.7,2.6-2.6c1.4,1.2,2.9,2.5,4.4,3.7
	C321.1,579.9,319.7,580.7,318.5,581.6z M278.7,578.6c-0.3-0.3-0.7-0.5-1-0.8c0.6-0.7,1.1-1.4,1.7-2c0.4,0.4,0.7,0.7,1.1,1.1
	C279.9,577.4,279.3,578,278.7,578.6z M274.2,582.6c-0.4,0.3-0.7,0.6-1.1,0.9c0.3-0.4,0.6-0.8,0.9-1.1
	C274.1,582.5,274.1,582.6,274.2,582.6z M197.9,586.9c-0.4-0.2-0.8-0.4-1.1-0.5c-0.3-0.7-0.6-1.5-0.8-2.2c0.1-1,0.3-2,0.4-3
	c1.2,1,2.4,2.1,3.6,3.1C199.3,585.1,198.6,586,197.9,586.9z M215.1,613.1C215.1,613.1,215.1,613.1,215.1,613.1
	C215.1,613.1,215.1,613.1,215.1,613.1L215.1,613.1z M217.8,613.7c-0.4,0.4-0.8,0.7-1.1,1.1c-0.4-0.4-0.8-0.8-1.2-1.2L217.8,613.7z
	 M312.6,570.3C312.6,570.3,312.6,570.3,312.6,570.3C312.6,570.3,312.6,570.3,312.6,570.3C312.6,570.3,312.6,570.3,312.6,570.3z
	 M273,569.7c-1,1-2,1.9-3,2.9c-1.1-0.7-2.1-1.3-3.2-2c0.8-1.3,1.6-2.7,2.6-4C270.6,567.6,271.8,568.7,273,569.7z M204,578.5
	c-2-1.3-4.1-2.6-6.2-3.9c0.5-1.8,1-3.6,1.7-5.5c2.2,2.3,4.2,4.6,6.1,6.9C205,576.8,204.5,577.7,204,578.5z M177.1,606.2l2.4,0.2
	c-0.3,0.3-0.6,0.6-0.9,0.8C178.1,606.9,177.6,606.5,177.1,606.2z M416.7,599c0.1-0.5,0.1-0.9,0.2-1.4c1.7-1.4,3.3-2.9,4.8-4.4
	c1.4,0.8,2.8,1.6,4.1,2.4c-2.1,1.9-4.2,3.8-6.3,5.6C418.6,600.5,417.6,599.7,416.7,599z M1255.6,570.2c0.5,0.2,1.1,0.4,1.6,0.6
	c0,0.3,0,0.6,0,0.8c0,0-0.1,0-0.1,0.1c-0.6-0.4-1.2-0.8-1.8-1.2C1255.4,570.4,1255.5,570.3,1255.6,570.2z M1309,578.6
	c0.6,0.9,1.3,1.8,2,2.7c-1,0.4-2,0.8-2.9,1.2c-0.5-0.4-0.9-0.7-1.4-1.1c0-0.3,0.1-0.6,0.1-0.9C1307.6,579.9,1308.3,579.2,1309,578.6
	z M1707.3,602.2c-0.6,0.6-1.3,1.1-1.9,1.7c-0.5-0.2-1-0.5-1.6-0.7c-0.4-0.6-0.9-1.2-1.3-1.8c0.9-0.5,1.7-1,2.5-1.5
	C1705.9,600.6,1706.6,601.4,1707.3,602.2z M1646.7,606.5c0.3-0.2,0.6-0.4,0.9-0.6c0.1,0.1,0.2,0.2,0.3,0.3c-0.9,0.9-1.7,1.9-2.7,2.8
	c-0.2-0.1-0.3-0.2-0.5-0.3C1645.5,608,1646.1,607.3,1646.7,606.5z M1707.2,586.5c0,0.1,0,0.2,0,0.2c-0.4,0.3-0.9,0.7-1.4,1
	c0.3-0.5,0.7-0.9,1-1.4C1707,586.4,1707.1,586.4,1707.2,586.5z M566.4,584.9c0-0.8,0.1-1.6,0.2-2.5c0.2,0.7,0.3,1.4,0.5,2.1
	C566.8,584.7,566.6,584.8,566.4,584.9z M605.7,590.4c0.5,0.3,1.1,0.5,1.6,0.8c0,0,0,0,0,0c-0.4-0.2-0.9-0.4-1.3-0.6
	C605.9,590.5,605.8,590.5,605.7,590.4z M547.6,581.1c-0.9-0.4-1.7-0.8-2.6-1.1c1.6-1.9,3.1-3.9,4.5-5.8
	C548.8,576.5,548.1,578.8,547.6,581.1z M592.8,587.2c1,1.1,1.9,2.1,2.7,3.2c-0.1,0.1-0.2,0.1-0.3,0.2c-1.1-0.8-2.2-1.5-3.4-2.3
	C592.1,587.9,592.4,587.6,592.8,587.2z M667.5,593.1c-0.1-1.1-0.2-2.3-0.3-3.4c1,1.3,1.9,2.5,2.7,3.7c-0.4,0.2-0.7,0.4-1.1,0.6
	C668.3,593.7,667.9,593.4,667.5,593.1z M735.4,587.8c0.1,0.3,0.2,0.7,0.3,1c-0.1,0.1-0.3,0.3-0.4,0.4
	C735.4,588.8,735.4,588.3,735.4,587.8z M873.1,606.2C873.1,606.2,873.1,606.3,873.1,606.2c-0.1,0.1-0.2,0.2-0.3,0.3
	C872.9,606.4,873,606.3,873.1,606.2z M1356.6,582.9c-0.3,0.3-0.6,0.7-0.9,1c-0.6-0.5-1.2-1-1.8-1.5c0.4-0.1,0.8-0.3,1.2-0.4
	C1355.7,582.3,1356.2,582.6,1356.6,582.9z M1353.5,581.7c0.1-0.2,0.3-0.4,0.4-0.6c0.2,0.1,0.3,0.2,0.5,0.3
	C1354.1,581.6,1353.8,581.6,1353.5,581.7z M1468.8,595.6c0-0.5,0-1.1,0-1.6c0.2,0.4,0.5,0.8,0.7,1.1
	C1469.2,595.3,1469,595.5,1468.8,595.6z M1422.1,597.5c0,0-0.1,0.1-0.1,0.1c0,0-0.1-0.1-0.1-0.1c0,0,0.1-0.1,0.1-0.1
	C1422,597.4,1422,597.4,1422.1,597.5z M1358.6,580.2c-0.3,0.1-0.6,0.2-0.9,0.3c-0.8-0.4-1.6-0.9-2.5-1.3c0.5-0.7,1-1.5,1.4-2.2
	c0.9,0.7,1.8,1.4,2.7,2.1C1359.1,579.4,1358.9,579.8,1358.6,580.2z M1265.7,576.9C1265.7,576.9,1265.7,576.9,1265.7,576.9
	c-0.1-0.1-0.1-0.2-0.1-0.3c0.1-0.1,0.3-0.1,0.4-0.2C1265.9,576.6,1265.8,576.7,1265.7,576.9z M1160.9,566.9
	c-0.3-0.9-0.6-1.9-0.9-2.8c0.1-0.1,0.2-0.2,0.2-0.3c0.8,0.6,1.6,1.3,2.4,1.9C1162.1,566.1,1161.5,566.5,1160.9,566.9z M1006.3,581
	c0-0.6,0-1.2,0.1-1.8c0.5,0.3,0.9,0.6,1.4,0.9C1007.3,580.4,1006.8,580.7,1006.3,581z M642.2,580.5c0,0.6,0.1,1.2,0.1,1.8
	c-1.4,0.7-2.7,1.4-4,2.1c-0.2-0.1-0.3-0.3-0.5-0.4c0.6-0.3,1.1-0.7,1.7-1c-0.7,0.3-1.3,0.6-1.9,0.9c-0.2-0.1-0.4-0.3-0.6-0.4
	c1.7-1.1,3.4-2.1,5-3.2C642.1,580.4,642.1,580.4,642.2,580.5z M446.6,616.8c-3.7-1.9-7.5-3.8-11.5-5.7c1-0.9,1.9-1.7,2.9-2.6
	c3.2,3.2,6.1,6,8.7,8.3C446.7,616.7,446.7,616.7,446.6,616.8z M1248.5,617.5c-0.6,0.5-1.2,1-1.8,1.4c0.1-0.2,0.1-0.4,0.2-0.6
	C1247.2,618.1,1247.8,617.8,1248.5,617.5z M1592,604.1c0,0.1,0,0.1,0,0.2c0,0-0.1,0.1-0.1,0.1C1591.9,604.3,1592,604.2,1592,604.1z
	 M1581.9,586.9c-0.2-0.4-0.4-0.9-0.6-1.3c0.5,0.3,1,0.6,1.4,0.9C1582.4,586.6,1582.1,586.7,1581.9,586.9z M1580.4,585
	c0.1,0.8,0.1,1.6,0.2,2.4c-1.2,0.6-2.5,1.1-3.7,1.7c0-0.4,0.1-0.7,0.1-1.1c0.9-1.2,1.8-2.4,2.6-3.6
	C1579.8,584.7,1580.1,584.9,1580.4,585z M1351.2,566.3c-0.2-0.1-0.4-0.2-0.6-0.3c0.2-0.3,0.4-0.5,0.5-0.8c0.1,0.2,0.2,0.4,0.3,0.6
	C1351.4,565.9,1351.3,566.1,1351.2,566.3z M1014.4,576.2c-0.1,0-0.1,0.1-0.2,0.1c-1.7-1-3.5-1.9-5.3-2.9c0-0.1,0.1-0.2,0.2-0.4
	c1.8,0.7,3.6,1.5,5.4,2.2C1014.5,575.6,1014.5,575.9,1014.4,576.2z M864,586.2c0.1,0.2,0.3,0.3,0.5,0.5c-0.7,0.6-1.5,1.2-2.2,1.9
	c0.1-0.2,0.2-0.4,0.3-0.5C863,587.4,863.5,586.8,864,586.2z M697,577.4c0,1.2,0,2.3-0.1,3.5c-0.8,0.3-1.5,0.6-2.2,0.9
	c-1.9-2.7-4.2-5.4-7.2-8c1-0.6,1.9-1.1,2.9-1.7C692.8,573.9,695,575.7,697,577.4z M604.6,575.4c-0.5-0.4-1-0.7-1.5-1.1
	c0.2-0.2,0.3-0.3,0.5-0.5C603.9,574.3,604.3,574.8,604.6,575.4C604.6,575.4,604.6,575.4,604.6,575.4z M583.9,568.3
	c-0.4,0.4-0.8,0.9-1.2,1.3c-0.6-0.3-1.3-0.6-1.9-0.8c0.6-0.4,1.3-0.9,1.9-1.3c0.1,0.1,0.3,0.1,0.4,0.2
	C583.4,567.9,583.6,568.1,583.9,568.3z M578.9,566.5c-0.4-0.5-0.7-1-1.1-1.5c0.7,0.3,1.4,0.7,2.1,1
	C579.5,566.2,579.2,566.3,578.9,566.5z M465.2,591.7c0-0.1,0-0.1,0-0.2c0.1,0.1,0.1,0.2,0.2,0.3
	C465.2,591.8,465.2,591.7,465.2,591.7z M1682.6,615.9c1.4,0.9,2.7,1.8,4,2.7c-0.2,0.2-0.5,0.3-0.7,0.5c-1.1-1-2.2-2-3.5-3
	C1682.4,616.1,1682.5,616,1682.6,615.9z M1583.2,583.4c-0.7-0.4-1.4-0.8-2.2-1.2c0.3-0.4,0.5-0.8,0.8-1.2c0.5,0.2,1,0.5,1.6,0.7
	C1583.4,582.3,1583.3,582.9,1583.2,583.4z M1408.3,575.1c-0.1-0.3-0.2-0.6-0.3-0.9c0.2,0.1,0.3,0.3,0.5,0.4
	C1408.4,574.8,1408.4,575,1408.3,575.1z M1081.6,570.6c0.5-0.9,1-1.7,1.5-2.6c0.2,0.1,0.4,0.2,0.6,0.3
	C1083,569.1,1082.3,569.9,1081.6,570.6z M736.6,569c-0.5-0.2-1-0.4-1.5-0.7c0.2-0.1,0.5-0.2,0.7-0.3
	C736.1,568.3,736.4,568.7,736.6,569z M733.8,567.4c-0.7-0.7-1.5-1.3-2.3-2c-0.8-1.8-1.7-3.5-2.8-5.3c2.3,2.3,4.3,4.6,6.3,6.9
	C734.6,567.2,734.2,567.3,733.8,567.4z M587.5,564.4C587.5,564.4,587.5,564.4,587.5,564.4C587.5,564.3,587.5,564.3,587.5,564.4
	C587.5,564.3,587.5,564.4,587.5,564.4z M577.4,564.5c-0.5-0.7-1.1-1.4-1.7-2.1c1.6,1.1,3.1,2.1,4.5,3.2
	C579.4,565.2,578.4,564.9,577.4,564.5z M513.4,570.8c-0.4,1.3-0.6,2.6-0.8,3.9c-0.3,0.5-0.6,1-0.8,1.4c-0.4-0.1-0.7-0.2-1.1-0.3
	c0-2,0-4,0.2-6.1C511.7,570,512.5,570.4,513.4,570.8z M263.6,562c1.4,1.1,2.8,2.2,4.1,3.3c-1.2,1.1-2.4,2.2-3.5,3.3
	c-1.1-2-2.4-4.1-3.8-6.1c0.4-0.4,0.9-0.9,1.4-1.3C262.4,561.4,263,561.7,263.6,562z M259.2,560.6
	C259.2,560.6,259.1,560.5,259.2,560.6c0.1-0.2,0.2-0.4,0.4-0.6c0.1,0,0.2,0.1,0.3,0.1C259.6,560.3,259.4,560.4,259.2,560.6z
	 M238.6,555.6c-4.1,3.8-7.1,7.8-9.2,11.8c-0.6-0.6-1.2-1.2-1.9-1.7c0-0.8,0-1.6,0-2.5c2.9-3.2,6.2-6.5,9.9-9.8
	C237.8,554.1,238.2,554.8,238.6,555.6z M208.9,563.1c-1.7-1.3-3.4-2.7-5.2-4c2.4-4.7,5.5-9.5,9.4-14.3
	C211,551.1,209.7,557.3,208.9,563.1z M289.4,615.5l0.8,0.1c-0.1,0.3-0.2,0.5-0.4,0.8c-1.1,0.7-2.2,1.4-3.4,2.1
	C287.4,617.5,288.4,616.5,289.4,615.5z M541.4,616.1c-0.1-0.1-0.2-0.3-0.4-0.4c0,0,0.1,0,0.1-0.1C541.2,615.8,541.3,616,541.4,616.1
	C541.4,616.1,541.4,616.1,541.4,616.1z M673.3,606.4c1.7,3,2.9,5.9,3.6,8.5c0,1.2,0,2.4-0.1,3.3c0,0,0,0,0,0.1
	C676.1,614.5,675,610.5,673.3,606.4C673.3,606.4,673.3,606.4,673.3,606.4z M1680.8,617.7c0.2,0.2,0.4,0.4,0.5,0.6
	c-0.3-0.1-0.5-0.2-0.8-0.4C1680.7,617.9,1680.8,617.8,1680.8,617.7z M1761.9,572.2c0.4,0.4,0.9,0.9,1.3,1.3
	c-0.4-0.3-0.7-0.6-1.1-0.9C1762,572.4,1761.9,572.3,1761.9,572.2z M1688.8,583.4c-0.6-0.3-1.2-0.7-1.8-1c0-0.1-0.1-0.1-0.1-0.2
	c2.2-3.9,3.8-7.8,4.6-11.6c1.5,1.2,3,2.3,4.4,3.5C1693.5,577.2,1691.2,580.4,1688.8,583.4z M1398.6,559.6c-1.4-1.5-3-3-4.7-4.5
	c0-1.3,0-2.6,0-3.8c1.9,1.9,3.8,3.8,5.5,5.6C1399.2,557.8,1398.9,558.7,1398.6,559.6z M1266.1,566.3c-1,0.6-2,1.2-3,1.8
	c-0.6-1.2-1.4-2.5-2.4-3.7c0.7-0.8,1.4-1.6,2.2-2.3C1264,563.4,1265,564.8,1266.1,566.3z M1238.8,568.2c-0.3-0.1-0.6-0.2-0.8-0.3
	c1.1-1.1,2.2-2.2,3.2-3.3c0.4,0.1,0.7,0.3,1.1,0.4C1241,566,1239.9,567.1,1238.8,568.2z M1171,560.5c-0.7,0.4-1.3,0.8-2,1.2
	c-1.4-1-2.8-2.1-4.3-3.1c0.7-0.8,1.5-1.6,2.2-2.3c1.5,1.4,2.8,2.7,4.2,4.1C1171.1,560.4,1171,560.5,1171,560.5z M1157,553.7
	c-0.7-0.4-1.5-0.8-2.2-1.3c-0.1-0.3-0.3-0.5-0.4-0.8c0-2.1,0-4.2-0.3-6.3c2.3,1.8,4.5,3.5,6.6,5.3
	C1159.4,551.7,1158.2,552.7,1157,553.7z M1086.3,565.4c-0.8,0.9-1.6,1.8-2.4,2.7c-0.2-0.1-0.5-0.2-0.7-0.3c0.2-0.3,0.4-0.6,0.5-0.8
	C1084.7,566.5,1085.5,565.9,1086.3,565.4z M969.2,562.4c-1.1,1.1-2.3,2.3-3.5,3.4c-1.3-3.2-3.2-6.3-6-9.4c-0.5-1.1-1-2.2-1.4-3.3
	c3.2,1.4,6.2,2.9,9.2,4.3C968,559.1,968.6,560.8,969.2,562.4z M921.4,558c-0.5-0.3-1-0.7-1.5-1c0.5,0.2,1,0.3,1.4,0.5
	C921.4,557.6,921.4,557.8,921.4,558z M921.7,565.3c-0.1,2.6-0.5,5.1-1,7.6c-0.2-0.2-0.3-0.4-0.5-0.6c0-1.6-0.3-3.2-0.8-4.7
	c-0.1,0.2-0.2,0.5-0.3,0.7c-0.9-3-2-6.1-3.3-9.2C917.9,561.1,919.9,563.2,921.7,565.3z M715.9,559.2c0.1,0.1,0.2,0.2,0.4,0.3
	c0.2,0.6,0.3,1.2,0.5,1.8C716.5,560.6,716.2,559.9,715.9,559.2C715.9,559.2,715.9,559.2,715.9,559.2z M696.6,569.6
	c-0.2-0.2-0.4-0.3-0.7-0.5c0.2-0.1,0.4-0.2,0.6-0.3C696.5,569.1,696.6,569.3,696.6,569.6z M640,567.4c-0.3-0.1-0.5-0.2-0.8-0.3
	c0.3,0.2,0.6,0.3,0.9,0.5c0.1,0.4,0.2,0.9,0.3,1.3c-0.3,0.1-0.5,0.3-0.8,0.4c-5.4-3.5-11.6-6.8-18.6-10.1c2.8-2,5.7-4,8.8-6.1
	c2.5,1.7,5,3.5,7.3,5.2C638.3,561.4,639.3,564.4,640,567.4z M620.6,559.5c5.9,4,10.9,8,15.2,12c-2.5,1.5-5,3-7.3,4.5
	c-1.4-1.3-2.9-2.5-4.6-3.7c0.8,1.2,1.5,2.4,2.1,3.6c-1.2-0.8-2.4-1.6-3.7-2.4c-2.6-2.9-5.5-5.8-8.6-8.7
	C615.9,563,618.2,561.2,620.6,559.5z M585.4,563.2c-4-2.2-8.2-4.4-12.6-6.5c0.5-1.2,1-2.5,1.6-3.7c5.3,2.8,10.3,5.6,15,8.4
	C588,561.9,586.7,562.5,585.4,563.2z M561.8,546.8C561.8,546.8,561.8,546.8,561.8,546.8c0.1-0.1,0.1-0.2,0.1-0.2c0,0,0.1,0,0.1,0.1
	C562,546.7,561.9,546.8,561.8,546.8z M415.8,583.6c0-0.4,0.1-0.7,0.1-1.1c0.1,0.2,0.3,0.4,0.4,0.6
	C416.2,583.3,416,583.5,415.8,583.6z M398,577.7c-0.1,0-0.2-0.1-0.3-0.1c-0.9-1.8-1.6-3.5-2-5.3c1,0.4,1.9,0.7,2.9,1.1
	C398.4,574.8,398.2,576.2,398,577.7z M394.8,573.2c-0.1-0.5-0.1-0.9-0.2-1.4c0.2,0.1,0.4,0.1,0.5,0.2
	C395,572.4,394.9,572.8,394.8,573.2z M369.1,567.6c-0.9-0.3-1.7-0.5-2.6-0.8c0.9,0.4,1.8,0.7,2.7,1.1c1.1,2.3,2.5,4.5,4.2,6.8
	c0.3,1.1,0.7,2.2,1.1,3.3c-3.7-3.9-7.3-8.1-10.7-12.5c1.2-0.6,2.5-1.2,3.8-1.8C368,565,368.5,566.3,369.1,567.6z M350.5,573.9
	c-0.5-0.3-0.9-0.6-1.4-0.9c0.2-0.1,0.3-0.2,0.5-0.3C349.9,573.1,350.2,573.5,350.5,573.9z M321,563.7c-0.1,0.1-0.2,0.2-0.4,0.3
	c-0.5-0.3-0.9-0.6-1.4-0.9c0.5-0.3,1-0.5,1.5-0.8C320.8,562.8,320.9,563.3,321,563.7z M316.7,561.6c-0.2-0.1-0.5-0.3-0.7-0.4
	c0.1-0.3,0.2-0.7,0.3-1c1.1-0.7,2.1-1.4,3.2-2.1c0.2,0.6,0.4,1.3,0.6,1.9C318.9,560.5,317.8,561,316.7,561.6z M272.6,561.5
	c-2.2-1.3-4.4-2.6-6.8-3.9c0.3-0.3,0.7-0.5,1-0.8C268.6,558.3,270.6,559.8,272.6,561.5C272.6,561.4,272.6,561.4,272.6,561.5z
	 M260.3,559.8c-0.2-0.1-0.3-0.1-0.5-0.2c0.1-0.1,0.1-0.1,0.2-0.2c0.1,0.1,0.3,0.2,0.4,0.3C260.4,559.7,260.3,559.7,260.3,559.8z
	 M235.4,550.3c-2.7,1.9-5.3,3.7-7.7,5.6c0.3-4.4,1-8.9,2-13.5C231.8,545.1,233.7,547.7,235.4,550.3z M198.9,553.7
	c-0.5,0.3-1.1,0.6-1.6,0.9c0,0,0,0-0.1,0c4.1-6.5,9.2-13.3,15.7-20.2c0.5,1.6,0.9,3.2,1.2,4.9C208,543.9,203,548.8,198.9,553.7z
	 M128.5,580.1c0,0,0-0.1,0-0.1C128.5,580.1,128.5,580.1,128.5,580.1C128.5,580.2,128.5,580.2,128.5,580.1z M77.7,581.5
	c0.2,1.9,0.4,3.8,0.4,5.7c-8.2-6.7-15-13.8-18.8-20.9c1.1,0.5,2.2,0.9,3.2,1.4C68.6,572.3,73.6,576.9,77.7,581.5z M58.7,564.9
	c0-0.1-0.1-0.1-0.1-0.2c0.1,0.1,0.3,0.2,0.4,0.3C58.9,565,58.8,564.9,58.7,564.9z M359.9,609.1c-0.8,1.2-1.7,2.4-2.6,3.6
	c-0.1-0.7-0.3-1.5-0.5-2.3C357.9,610,358.9,609.5,359.9,609.1z M1680.6,621.3c-0.1-0.3-0.3-0.6-0.4-0.9c0.7,0.4,1.3,0.7,2,1.1
	c-0.3,0.2-0.6,0.3-0.9,0.5C1681,621.7,1680.8,621.5,1680.6,621.3z M1727.8,612.2c0,0,0.1,0,0.1-0.1c1.2,1.7,2.2,3.3,3.1,5
	c-1-0.6-2.1-1.2-3.1-1.8C1727.9,614.3,1727.8,613.3,1727.8,612.2z M1840.6,601.3c0.6,0.7,1.1,1.4,1.6,2.1c-0.2,1-0.3,1.9-0.6,2.9
	c-0.1,0.1-0.2,0.2-0.2,0.3c-0.1-0.1-0.2-0.2-0.2-0.2c-0.5-1-1.1-2.1-1.8-3.1c0.1,0.5,0.1,0.9,0.1,1.4c-0.3-0.3-0.6-0.6-0.9-0.9
	C1839.2,603,1839.9,602.2,1840.6,601.3z M2044.4,574.6c1.5,3,2.8,6,4,8.9c-2.1,1.3-4.2,2.5-6.4,3.8c-0.2-2.7-0.5-5.5-1-8.3
	C2042.1,577.5,2043.3,576,2044.4,574.6z M2049.2,567.4c1.5,2.4,2.8,4.8,4.1,7.2c-0.6-0.4-1.1-0.8-1.7-1.2c-1.1-1.5-2.2-3-3.4-4.5
	C2048.6,568.5,2048.9,567.9,2049.2,567.4z M2042.4,596.5c2.8-2,5.4-4,7.7-6.1c-0.3,0.5-0.5,1-0.8,1.4c-2,2-4.4,4.1-6.9,6.1
	C2042.4,597.5,2042.4,597,2042.4,596.5z M2050.7,590.4C2050.7,590.4,2050.7,590.4,2050.7,590.4
	C2050.7,590.4,2050.7,590.4,2050.7,590.4C2050.7,590.4,2050.7,590.4,2050.7,590.4z M2052.4,596.6c0.1,0.5,0.2,1,0.3,1.5
	c-1.2,0.7-2.5,1.4-3.7,2C2050.3,599,2051.4,597.8,2052.4,596.6z M2003.8,619.4c0.5-0.3,1.1-0.5,1.6-0.8c0.1,0.4,0.2,0.7,0.4,1.1
	c-0.9,0.4-1.9,0.9-2.8,1.3C2003.3,620.4,2003.6,619.9,2003.8,619.4z M2048.9,608.9c1.7-0.9,3.5-1.8,5.2-2.8c0.1,1,0.2,1.9,0.3,2.9
	c-0.1,0.2-0.1,0.4-0.2,0.6c-1.4,0.5-2.8,1-4.2,1.5C2049.7,610.3,2049.3,609.6,2048.9,608.9z M1958,590.9c-0.5-0.4-1-0.8-1.6-1.2
	c0-0.1,0-0.3,0-0.4C1957,589.8,1957.5,590.3,1958,590.9C1958,590.9,1958,590.9,1958,590.9z M1958.9,589.8c-0.7-0.5-1.4-1-2.1-1.5
	c0.9-1.6,1.7-3.1,2.5-4.7c0.8,0.9,1.5,1.7,2.3,2.6C1960.7,587.4,1959.8,588.6,1958.9,589.8z M1701.2,566c-1.3,2.1-2.7,4.1-4.1,6.1
	c-1.8-1.1-3.6-2.1-5.4-3.2c0.3-2,0.4-4,0.2-6c0.8-2,1.4-4,1.7-6c-0.7,1-1.4,2-2.2,3c0,0,0-0.1,0-0.1c0,0.1-0.1,0.2-0.1,0.3
	c-0.8,1-1.5,2-2.4,3c0.5-4.2,0.6-8.6,0.5-13c2.7,2.4,5.3,4.8,7.7,7.2C1698.7,560.2,1700,563.1,1701.2,566z M1440.4,577.5
	c-1.2-1.4-2.5-2.9-3.9-4.2c-0.4-0.7-0.8-1.4-1.2-2.1c0.2-0.7,0.5-1.5,0.7-2.2c1.4,1.3,2.7,2.7,4,4
	C1440.2,574.5,1440.3,576,1440.4,577.5z M1336.9,553.9c-1.1,1.3-2,2.7-2.9,4c-0.2-0.1-0.3-0.2-0.5-0.3c-1.3-2.6-2.8-5.2-4.7-7.8
	c0.7-4.1,0.3-8.2-1.4-12.1c0-0.2,0.1-0.3,0.1-0.5c1.6,1,3.1,2,4.6,3.1C1334.2,544.8,1335.9,549.3,1336.9,553.9z M1257.3,552.7
	c-0.9,0.6-1.7,1.3-2.6,1.9c-0.4-1.6-1-3.1-1.9-4.7c1.3,0.5,2.6,1.1,3.9,1.6C1256.9,551.9,1257.1,552.3,1257.3,552.7z M1197.6,556.5
	c0.1-0.1,0.1-0.2,0.2-0.3c0.1,0.3,0.2,0.6,0.4,0.9C1198,556.9,1197.8,556.7,1197.6,556.5z M1081.9,561.2c0.1-0.2,0.2-0.4,0.3-0.5
	c0.1,0.1,0.2,0.1,0.3,0.2C1082.3,560.9,1082.1,561.1,1081.9,561.2z M1073.5,555.1c-0.1-0.4-0.2-0.8-0.3-1.1c0.2,0.2,0.5,0.3,0.7,0.5
	C1073.8,554.7,1073.7,554.9,1073.5,555.1z M966.3,551.1c0.1,1.1,0.3,2.2,0.5,3.3c-3-1.2-6.2-2.3-9.4-3.5c-0.6-1.7-1.2-3.4-1.7-5.1
	c2.8,1,5.5,2,8.1,2.9C964.7,549.5,965.6,550.3,966.3,551.1z M920.4,552.4c0.3,1.3,0.6,2.5,0.8,3.8c-1.5-0.4-3.1-0.9-4.6-1.3
	c-0.5-0.3-0.9-0.6-1.4-0.9c0.7-1.5,1.3-3,1.8-4.5C918.2,550.5,919.3,551.5,920.4,552.4z M768.5,574.4c-0.3-0.1-0.5-0.3-0.8-0.4
	c0-0.2,0-0.4,0-0.6c0.4,0.2,0.8,0.3,1.2,0.5C768.7,574.1,768.6,574.2,768.5,574.4z M712.4,549.9c-0.5-0.2-1-0.4-1.6-0.6
	c-1.2-1.9-2.4-3.8-3.8-5.8c0.7,0.2,1.3,0.5,2,0.7C710.3,546.1,711.4,548,712.4,549.9z M712,551.3c0.5,0.2,1,0.4,1.4,0.6
	c0.2,0.4,0.4,0.8,0.5,1.2c-0.5-0.3-0.9-0.5-1.4-0.8C712.4,552.1,712.2,551.7,712,551.3z M689.1,564.7c0.7,0.8,1.4,1.5,2,2.3
	c-1.1-0.6-2.1-1.2-3.2-1.8C688.2,565.1,688.6,564.9,689.1,564.7z M687.3,569.8c-1,0.5-1.9,0.9-2.9,1.4c-1.2-0.9-2.5-1.8-3.8-2.8
	c1-0.4,1.9-0.9,2.9-1.3C684.8,568,686.1,568.9,687.3,569.8z M678.2,566.2c-1.7-1.9-3.5-3.9-5.5-5.9c2.8,1.6,5.4,3.3,7.9,4.9
	C679.8,565.6,679,565.9,678.2,566.2z M633.8,550.9c-0.1,0-0.2-0.1-0.2-0.1c0,0,0.1-0.1,0.1-0.1C633.7,550.8,633.7,550.9,633.8,550.9
	z M631.9,550c-3.5-1.8-7.1-3.5-10.9-5.2c1.9-1.7,3.9-3.4,6-5.1c2.3,3.3,4.3,6.5,6,9.8C632.7,549.7,632.3,549.8,631.9,550z
	 M628,551.9c-6.5,3.1-12.4,6.4-17.8,9.8c-1.1-1-2.2-1.9-3.4-2.9c3.7-4.1,7.8-8.2,12.4-12.4C622.3,548.2,625.2,550,628,551.9z
	 M576,549.5c0.5-0.9,1-1.9,1.5-2.8c2.8,2.3,5.4,4.7,7.9,7C582.3,552.3,579.2,550.9,576,549.5z M564.8,544.9c-0.1,0-0.2-0.1-0.3-0.1
	c0.3-0.2,0.7-0.5,1-0.7C565.3,544.3,565,544.6,564.8,544.9z M523.5,558.9c0.3-0.6,0.5-1.3,0.8-1.9c0.2,0.1,0.3,0.2,0.5,0.2
	C524.3,557.7,523.9,558.3,523.5,558.9z M518.1,561.1c-1.8-1.3-3.7-2.5-5.7-3.8c0.1-0.3,0.1-0.5,0.2-0.8c1-1.2,2.1-2.4,3.2-3.5
	c2.2,1,4.4,2,6.6,3C520.7,557.7,519.3,559.4,518.1,561.1z M488.2,568.4c-0.2-0.5-0.4-0.9-0.6-1.4c0.3,0.2,0.5,0.3,0.8,0.5
	C488.3,567.8,488.2,568.1,488.2,568.4z M478.8,563.1c-0.2-0.2-0.4-0.5-0.6-0.7c0.1-0.2,0.1-0.3,0.2-0.5c0.1,0.1,0.2,0.1,0.4,0.2
	C478.8,562.5,478.8,562.8,478.8,563.1z M478.7,561.6c0.1-0.1,0.1-0.3,0.2-0.4c0,0.2,0,0.3,0,0.5
	C478.8,561.7,478.7,561.6,478.7,561.6z M469.1,575.5c-0.3-0.8-0.6-1.6-0.9-2.4c0.8-1.3,1.6-2.7,2.7-4c-1.2,0.8-2.2,1.6-3.2,2.5
	c-0.1-0.2-0.2-0.5-0.2-0.7c1.2-2.7,2.1-5.4,2.8-8.1c0.7,1.5,1.2,3,1.7,4.5C470.5,570,469.6,572.7,469.1,575.5z M367.3,562.7
	c-1.5,0.6-2.9,1.1-4.3,1.7c-0.9-1.1-1.7-2.3-2.6-3.4c2.1-1.2,4.2-2.4,6.3-3.6C366.7,559.1,366.9,560.9,367.3,562.7z M348.2,570.8
	c-0.5,0.2-0.9,0.4-1.4,0.6c-0.5-0.4-1.1-0.7-1.6-1.1c0.6-0.4,1.2-0.8,1.8-1.2C347.4,569.7,347.8,570.3,348.2,570.8z M343.3,566.1
	c-1.1-3-2.5-6-4.1-9.1c0.1,0,0.1-0.1,0.2-0.1c1.6,2.9,3.3,5.8,5.1,8.5C344.1,565.7,343.7,565.9,343.3,566.1z M264.6,556.9
	c-0.6-0.3-1.2-0.7-1.9-1c0.4-0.5,0.9-1.1,1.3-1.6c0.6,0.6,1.3,1.2,2,1.8C265.6,556.3,265.1,556.6,264.6,556.9z M256.4,552.3
	c0.7-1.3,1.4-2.6,2.2-3.8c0.3,0.3,0.6,0.7,0.9,1C258.5,550.4,257.4,551.4,256.4,552.3z M74.4,566.5c0.5,1.5,0.9,3,1.3,4.5
	c-3.4-1.3-6.8-2.5-10.4-3.8c-2.3-1.2-4.7-2.5-7.3-3.7c-0.3-0.7-0.6-1.5-0.8-2.2c-0.2,0.5-0.3,1.1-0.3,1.6c0,0-0.1,0-0.2-0.1
	c-0.3-1.1-0.5-2.3-0.7-3.4c6.2,2.1,12.1,4.2,17.8,6.3C74.1,566.1,74.3,566.3,74.4,566.5z M1835.9,607.3c0-0.1,0-0.2,0-0.4
	c0,0,0,0,0,0c0.8,1.1,1.6,2.2,2.4,3.3c-0.3,0.4-0.7,0.8-1,1.2C1836.9,610,1836.4,608.6,1835.9,607.3z M2121.2,604.3
	c0,0-0.1,0.1-0.1,0.1c0.1-0.1,0.1-0.2,0.2-0.3C2121.2,604.2,2121.2,604.2,2121.2,604.3z M2149.8,569.9c1.6-1.6,3-3.2,4.1-4.8
	c-1.3,2.3-2.7,4.5-4.2,6.7C2149.8,571.2,2149.8,570.6,2149.8,569.9z M2134.6,574.7c-0.2,0.1-0.3,0.2-0.5,0.3
	c-0.2-0.7-0.4-1.5-0.6-2.2c0.4,0.2,0.9,0.5,1.3,0.7C2134.7,574,2134.6,574.4,2134.6,574.7z M2112,586.4c-0.3,0.1-0.6,0.3-0.9,0.4
	c-0.2-0.4-0.4-0.8-0.6-1.1c0.7-1.4,1.3-2.7,1.8-4.1c0.1,0,0.2,0.1,0.3,0.1C2112.5,583.4,2112.3,584.9,2112,586.4z M2112.7,581
	c0,0-0.1,0-0.1,0c0-0.1,0.1-0.3,0.1-0.4C2112.7,580.7,2112.7,580.8,2112.7,581z M2109.9,579.9c-0.5-0.2-0.9-0.3-1.4-0.5
	c1.6-4.5,2.6-9.1,2.8-13.6c0.9,3.2,1.3,6.4,1.5,9.6C2111.9,576.9,2110.9,578.4,2109.9,579.9z M2109.5,580.4c-1,1.4-2.1,2.8-3.2,4.2
	c0.7-1.6,1.4-3.2,1.9-4.8C2108.7,580,2109.1,580.2,2109.5,580.4z M2032.1,547.8c-0.6-1.4-1.3-2.9-2-4.3c0.7,0.5,1.3,1,2,1.5
	C2032.2,546,2032.2,546.9,2032.1,547.8z M1967.1,578c-0.3,0.5-0.6,1-1,1.5c-1.1-1.1-2.3-2.2-3.5-3.3c1.7-4.3,3-8.6,3.9-13
	c0.7,1.9,1.3,3.7,1.8,5.6C1968.1,572,1967.7,575,1967.1,578z M1747.1,570c-0.5,0.6-1,1.3-1.6,1.9c-0.3-0.4-0.5-0.7-0.8-1.1
	c0.7-0.6,1.3-1.3,2-1.9C1746.9,569.3,1747,569.7,1747.1,570z M1736.2,579.2c-0.2-0.2-0.3-0.3-0.5-0.5c0.1,0,0.1-0.1,0.2-0.1
	C1735.9,578.8,1736,579,1736.2,579.2z M1731.7,573.4c0-0.7-0.1-1.3-0.1-2c0.3,0.5,0.6,1,0.9,1.4
	C1732.2,573.1,1732,573.3,1731.7,573.4z M1726.3,570.6c-2.1-1.7-4.4-3.4-6.7-5.1c1.1-2.2,2.2-4.3,3.1-6.5c2.3,2.9,4.4,5.8,6.4,8.7
	C1728.2,568.7,1727.3,569.6,1726.3,570.6z M1689.1,545.4c0-0.4-0.1-0.8-0.1-1.1c0.5,0.7,0.9,1.3,1.4,2
	C1689.9,545.9,1689.5,545.6,1689.1,545.4z M1656.1,567.2c0.6-1.6,1.2-3.1,1.7-4.7c0.2,0.3,0.5,0.5,0.7,0.8
	C1657.8,564.6,1657,565.9,1656.1,567.2z M1594.7,568.2c-1.6,2.9-3.2,5.7-5,8.5c-0.2-0.3-0.5-0.5-0.7-0.8c0.2,0.4,0.3,0.7,0.5,1.1
	c-0.1,0.2-0.2,0.4-0.3,0.5c-0.4-2-1-4-1.8-6c1.3-2.6,2.5-5.3,3.4-7.9c1.2,0.7,2.3,1.3,3.5,2C1594.4,566.5,1594.6,567.4,1594.7,568.2
	z M1504.4,549.4c-0.4-0.4-0.9-0.9-1.3-1.3c-0.7-1.5-1.4-3-2.1-4.6c0.9,0.7,1.9,1.4,2.8,2.2C1504,546.9,1504.2,548.1,1504.4,549.4z
	 M1436.9,565.6c0.2-0.8,0.3-1.5,0.5-2.3c0.5,1.2,0.9,2.4,1.3,3.6C1438,566.5,1437.4,566.1,1436.9,565.6z M1393.4,546.3
	c0-0.3-0.1-0.6-0.2-0.9c0-0.2-0.1-0.5-0.1-0.7c-0.2-1.1-0.5-2.2-0.8-3.2c0.5,1,1.1,2.7,1.9,5.3
	C1393.9,546.6,1393.7,546.5,1393.4,546.3z M1308.8,560.6c-0.9,0.3-1.8,0.6-2.7,0.9c0-3-0.3-6-0.9-9c1.5-2.1,3.2-4.1,4.9-6.2
	C1308.9,551.2,1308.5,556,1308.8,560.6z M1268.7,536.6c1.2,1.9,2.2,3.9,3,5.8C1270.6,540.5,1269.6,538.6,1268.7,536.6z
	 M1256.2,550.5c-1.2-0.4-2.5-0.8-3.7-1.2c-0.4-0.7-0.8-1.3-1.3-2c0.9-0.7,1.9-1.3,2.9-2C1254.7,547.1,1255.4,548.8,1256.2,550.5z
	 M1250,548.2c0,0.1,0,0.3,0,0.4c-0.1,0-0.2-0.1-0.4-0.1C1249.8,548.4,1249.9,548.3,1250,548.2z M1249.4,548.6
	c0.2,0.1,0.4,0.1,0.6,0.2c-0.2,4.1-1.3,8.1-3.2,12.1c-0.7,0.6-1.3,1.1-2,1.7c-0.4-0.4-0.8-0.7-1.2-1.1c3.1-4.1,4.8-8.2,4.8-12.2
	C1248.7,549.1,1249.1,548.8,1249.4,548.6z M1236.5,559.8c-0.1-0.3-0.1-0.6-0.2-1c0.2-0.2,0.5-0.3,0.7-0.5c-0.2,0.1-0.4,0.2-0.6,0.3
	c1.7-1.4,3.4-2.8,5.1-4.1C1240,556.2,1238.3,558,1236.5,559.8z M1200.6,554.9c-0.4-0.4-0.7-0.7-1.1-1.1c1.6-2.4,3-4.8,4.3-7.3
	c0.6,0.6,1.3,1.1,1.9,1.7C1203.8,550.4,1202.1,552.6,1200.6,554.9z M1172.5,550.8c0.3-0.2,0.5-0.5,0.8-0.7c0.7,0.9,1.4,1.8,2,2.8
	C1174.4,552.2,1173.5,551.5,1172.5,550.8z M1113.9,557.4c-0.1-0.1-0.3-0.1-0.4-0.2c1.9-3.8,3.5-7.7,4.5-11.5
	c0.5,1.1,0.9,2.2,1.3,3.3C1117.3,551.8,1115.5,554.7,1113.9,557.4z M1088,557.7c-1.1-0.7-2.2-1.3-3.3-2c0.9-2.2,1.6-4.4,1.9-6.7
	c2,2,3.9,4,5.7,6C1090.9,556,1089.4,556.8,1088,557.7z M1076.2,551.1c-1.3-0.7-2.6-1.3-3.9-2c-0.1-0.7-0.2-1.3-0.2-2
	c1.2-2.5,2.7-4.9,4.4-7.4c1.2,1.1,2.4,2.1,3.6,3.2C1079.1,545.6,1077.8,548.3,1076.2,551.1z M1061.4,547c-0.1-0.3-0.2-0.6-0.3-0.9
	c0.2,0.1,0.3,0.2,0.5,0.3C1061.5,546.6,1061.4,546.8,1061.4,547z M1045.3,562.5c-0.5-0.3-1.1-0.6-1.6-0.9c0.9-1.2,1.7-2.5,2.4-3.7
	C1045.9,559.5,1045.6,561,1045.3,562.5z M1025.1,560.7c-0.4-1.2-0.8-2.4-1.1-3.7c0.6,0.4,1.3,0.7,1.9,1.1
	C1025.6,558.9,1025.4,559.8,1025.1,560.7z M999.5,567.7c-0.1,0-0.1,0.1-0.2,0.1c-0.8-0.2-1.5-0.5-2.3-0.7c-0.2-1.7-0.3-3.5-0.3-5.3
	c1.7,0.7,3.3,1.5,5,2.2C1000.9,565.3,1000.2,566.5,999.5,567.7z M955.4,544.6c-0.3-1.2-0.7-2.5-0.9-3.7c2.4,1.8,4.6,3.6,6.7,5.4
	C959.3,545.7,957.4,545.1,955.4,544.6z M843.3,570.2c-0.1-0.3-0.2-0.6-0.3-0.9c0.2,0.1,0.3,0.2,0.5,0.3
	C843.5,569.8,843.4,570,843.3,570.2z M806.3,579.5c-0.3-0.1-0.6-0.2-0.9-0.4c0.6-0.8,1.1-1.5,1.6-2.3
	C806.8,577.7,806.5,578.6,806.3,579.5z M770.5,571.1c-0.2,0.3-0.4,0.6-0.6,1c-0.9-0.3-1.7-0.6-2.6-0.9c-0.2-1.3-0.5-2.6-1-3.9
	c1.4,0.7,2.9,1.3,4.3,2C770.6,569.9,770.6,570.5,770.5,571.1z M706.4,542.7c-0.1-0.1-0.2-0.3-0.3-0.4c0.5,0.2,1,0.5,1.4,0.7
	C707.1,542.9,706.8,542.8,706.4,542.7z M684.8,563.7c-4.5-2.3-9.2-4.5-14.3-6.7c0.9-0.5,1.9-1,2.8-1.5c5.9,2,11.6,4.1,17,6.2
	C688.5,562.3,686.7,563,684.8,563.7z M562.3,542c0.1-2.4-0.1-4.8-0.6-7.2c2.1,1.4,4.1,2.9,6,4.3C565.8,540,564,541,562.3,542z
	 M526.6,555.1c-0.4-0.1-0.7-0.3-1.1-0.4c0.5-0.9,1.1-1.8,1.7-2.7c-1,0.8-1.9,1.5-2.8,2.3c-2.3-0.9-4.7-1.8-7.1-2.7
	c1.1-1.1,2.2-2.2,3.4-3.2c3,1.1,6,2.2,9,3.3C528.6,552.8,527.5,554,526.6,555.1z M514.5,549.2c0.3-0.9,0.6-1.8,0.9-2.8
	c0.7,0.3,1.4,0.5,2.1,0.8C516.4,547.9,515.4,548.5,514.5,549.2z M488.7,565.7c-0.7-0.3-1.3-0.6-2-0.8c-0.6-1.7-1.2-3.5-1.6-5.2
	c1.4,0.5,2.8,1,4.2,1.5C489.1,562.7,488.9,564.2,488.7,565.7z M479.1,558.6c-0.8,0.7-1.6,1.5-2.3,2.2c-1.6-1.7-3.3-3.4-5.3-5.1
	c0-0.3,0-0.6,0.1-0.8c2.6,0.9,5.2,1.8,7.8,2.7C479.2,557.9,479.2,558.2,479.1,558.6z M436.8,577.6c-0.1,2.1,0.1,4.1,0.7,6.2
	c-0.1,0.1-0.3,0.3-0.4,0.4c-1.3-1.5-2.5-3-3.8-4.6c0.8-1.2,1.5-2.5,2.2-3.7C435.9,576.4,436.4,577,436.8,577.6z M385.6,555.1
	c-0.4-2.4-0.6-4.8-0.8-7.2c2.2-1.1,4.5-2.2,6.9-3.3C389,548,387,551.6,385.6,555.1z M370.4,558.9c-0.5-1-0.9-1.9-1.2-2.9
	c0.3-0.2,0.7-0.4,1-0.6C370.3,556.6,370.3,557.8,370.4,558.9z M368.3,553.2c-0.1-0.4-0.2-0.8-0.3-1.2c-0.2,0.5-0.4,1-0.6,1.6
	c-3.1,1.5-6.2,3-9.1,4.5c-2.3-3.3-4.5-6.7-6.4-10.1c6.5-4.4,13.6-8.8,21.4-13.1c-2.1,5.9-3,11.8-3.1,17.5
	C369.6,552.6,368.9,552.9,368.3,553.2z M336.9,552.8c-0.8-1.3-1.6-2.5-2.4-3.8c0.3-0.2,0.6-0.3,0.9-0.5c0.6,1.4,1.2,2.8,1.9,4.2
	C337.1,552.7,337,552.7,336.9,552.8z M300.6,554.8c0.1,0.2,0.2,0.4,0.3,0.6c-1,2.3-2.1,4.6-3.4,6.9c-0.8-0.8-1.7-1.7-2.6-2.5
	C296.7,558.2,298.6,556.5,300.6,554.8z M271,553c-1.2-0.9-2.3-1.8-3.5-2.7c0.1-0.1,0.2-0.2,0.3-0.4C268.9,551,270,552,271,553z
	 M263,546.5c-0.7-0.6-1.3-1.2-2-1.8c0.1-0.2,0.3-0.4,0.4-0.6c0.7,0.6,1.5,1.3,2.2,1.9C263.4,546.1,263.2,546.3,263,546.5z
	 M232,533.9c0.2-0.5,0.3-1,0.5-1.4c1,1.3,1.9,2.6,2.8,3.9C234.2,535.6,233.1,534.8,232,533.9z M221.2,526.8
	c-0.1-0.1-0.3-0.2-0.4-0.3c0.4-0.4,0.8-0.7,1.2-1.1C221.8,525.9,221.5,526.3,221.2,526.8z M171.8,563.7c0,0,0-0.1,0-0.1
	C171.8,563.6,171.8,563.6,171.8,563.7C171.8,563.7,171.8,563.7,171.8,563.7z M113.5,620.1l0.5,0c-0.5,0.7-1,1.3-1.5,2
	c-0.1-0.8-0.3-1.6-0.5-2.5C113,619.9,113.5,620.1,113.5,620.1z M487,628.5c1.6-1,3.4-2.2,5.4-3.5l2.7,0.3c0,0,0-0.2,0.1-0.6
	c0.6,0.5,1.2,1,1.8,1.5c-3.2,1.2-6.1,2.3-8.8,3.3C487.8,629.2,487.4,628.8,487,628.5z M606.4,623.6c0.5,0.4,1,0.8,1.5,1.2
	c-0.3,0.6-0.7,1.2-1,1.7c-0.3-0.5-0.7-0.9-1.1-1.4C606,624.6,606.2,624.1,606.4,623.6z M2042.5,623.7c-0.3,0.3-0.6,0.6-0.9,0.9
	c0.2-0.4,0.5-0.9,0.7-1.3C2042.4,623.5,2042.4,623.6,2042.5,623.7z M2148.9,596.6c0.9-2.9,1.5-5.7,1.6-8.6c0.9-1.2,1.8-2.4,2.6-3.6
	c1.2,0.8,2.4,1.5,3.5,2.3c-2.4,3.4-4.9,6.8-7.5,10C2149,596.7,2148.9,596.7,2148.9,596.6z M2169.7,596.1c3.4,2.6,6.6,5.1,9.6,7.6
	c-1.8,2.2-3.8,4.3-5.9,6.4c-3.1-1.9-6.3-3.7-9.6-5.6C2165.8,601.8,2167.8,599,2169.7,596.1z M2243,610.5c0,0.1,0.1,0.1,0.1,0.2
	c-0.4,0.2-0.8,0.4-1.2,0.6C2242.3,611,2242.6,610.7,2243,610.5z M2261.1,618.8c0.3,0.6,0.6,1.1,0.9,1.7c-1.4-1.3-2.8-2.7-4.2-4
	C2258.9,617.2,2260,618,2261.1,618.8z M2280.7,608.4c-1.2-2.4-2.8-4.7-4.6-7.1c0.1,0,0.1-0.1,0.2-0.1c2.1,2.3,4.1,4.5,6,6.7
	c0,0.5,0,1-0.1,1.5C2281.7,609.1,2281.2,608.8,2280.7,608.4z M2301.4,615.7c0-8.6-1.1-18.1-4.1-28c0.2-0.2,0.4-0.3,0.7-0.5
	c8.7,11.5,13,22.8,14.9,33.1c-1.2-1.3-2.5-2.5-3.8-3.8c1.6,2.2,3,4.5,4.3,6.8c0.1,0.5,0.1,0.9,0.2,1.4c-0.6,1.9-1.4,3.7-2.2,5.5
	C2308.8,625.7,2305.5,620.8,2301.4,615.7z M2358.1,567.2c-0.7-0.5-1.4-0.9-2.2-1.4c-0.5-1-0.9-2.1-1.4-3.1
	C2355.8,564.2,2356.9,565.7,2358.1,567.2z M2336.9,573.7c-3.7-3.2-7.8-6.2-12.4-9.2c2.9-3.3,5.4-6.6,7.2-9.8
	C2334.2,561.1,2335.9,567.5,2336.9,573.7z M2323.9,565.1c5.8,5.4,10.4,10.9,14.1,16.4c0.4,4.4,0.5,8.7,0.3,12.8
	c-1.3-1.1-2.7-2.3-4.1-3.4c-1.8-5.1-4.9-10.2-10-14.9c1,1.9,1.7,3.9,2.4,5.8c-2.5-3.8-5.1-7.6-7.9-11.3
	C2320.5,568.7,2322.3,566.9,2323.9,565.1z M2260.7,525.2c11,8.1,20.1,16.4,27.6,24.5c-1.1,3.2-2.6,6.4-4.5,9.6
	c-0.3-0.2-0.7-0.4-1-0.6c-5.9-8.1-13.5-16.1-23.2-23.7C2260.2,531.7,2260.6,528.4,2260.7,525.2z M2258.8,539.3
	c8.3,10.3,13.9,20.7,17.6,30.8c-3.6,4.4-7.7,8.8-12.2,13c-1.4-1.1-2.8-2.1-4.2-3.2c0.8-2.9,1.1-5.7,0.8-8.5
	c3.4-4.9,5.6-9.7,6.3-14.4c-3.7,5.5-8.6,11-14.4,16.4c-1.7-1.7-3.4-3.5-5.2-5.2C2252.4,558.9,2256.5,549.1,2258.8,539.3z
	 M2232.2,563.3c-1.9,3-3.8,6-5.9,8.9c-1.8-1.1-3.6-2.1-5.4-3.2c0.5-3.1,0.4-6.2-0.3-9.2c-0.6,2.5-1.6,5-2.7,7.5
	c-0.1,0-0.2-0.1-0.3-0.1c0.8-5.5,1.2-11.3,1-17.1C2223.6,554.5,2228.1,558.9,2232.2,563.3z M2191,547.5c2.9,10.2,3.3,20.3,2.2,29.9
	c-3.2-1.8-6.4-3.7-9.8-5.5C2186.9,564,2189.6,555.8,2191,547.5z M2169.2,566.5c-2.2,4.2-4.7,8.3-7.2,12.3c-1.3-0.6-2.7-1.2-4.1-1.8
	c2.6-4.4,4.8-8.9,6.4-13.4C2166,564.6,2167.6,565.6,2169.2,566.5z M2156.8,559.6c-0.1,0.2-0.2,0.5-0.4,0.7c0.1-0.3,0.2-0.5,0.2-0.8
	C2156.7,559.6,2156.7,559.6,2156.8,559.6z M2135.6,568.8c-0.2,1.4-0.5,2.8-0.7,4.2c-0.6-0.2-1.1-0.5-1.7-0.7
	c-0.2-0.6-0.3-1.1-0.5-1.7c0.1-1,0.1-2,0.2-3C2133.8,568,2134.7,568.4,2135.6,568.8z M2032.1,544.3c-0.7-0.4-1.4-0.8-2.2-1.2
	c-0.4-0.8-0.8-1.7-1.2-2.5C2029.9,541.8,2031,543,2032.1,544.3z M2013.6,577.1c-1.1-1.3-2.3-2.6-3.6-3.9c-1.6-2.8-3.3-5.7-5.2-8.7
	c3.9,3.5,7.5,7.1,10.7,10.6C2014.9,575.8,2014.3,576.5,2013.6,577.1z M1968.5,556c-0.3-0.3-0.7-0.6-1-0.9c0-1.3,0-2.6,0-3.8
	c0.2,0.2,0.4,0.4,0.7,0.7C1968.3,553.3,1968.4,554.6,1968.5,556z M1929,555c-0.5,2.7-1.3,5.3-2.6,8c-1.5-2.1-3.1-4.1-4.9-6.1
	c-0.3-3.1-1-6.2-2-9.2C1922.9,550.1,1926,552.5,1929,555z M1912.6,542.7c0,0.1,0,0.3,0,0.4c-0.2-0.3-0.5-0.6-0.7-0.9
	C1912.1,542.3,1912.3,542.5,1912.6,542.7z M1910.4,563.2c-0.2,0.6-0.3,1.2-0.5,1.7c-0.3-0.9-0.5-1.7-0.8-2.6
	C1909.5,562.7,1910,563,1910.4,563.2z M1851.4,581.6c0.6,1.6,1.1,3.1,1.5,4.7c-0.7-0.9-1.4-1.8-2.1-2.7
	C1851,582.8,1851.2,582.2,1851.4,581.6z M1836.5,581c-0.3,1.5-0.7,3.1-1.2,4.6c-0.1-2.4-0.3-4.8-0.7-7.2
	C1835.2,579.2,1835.9,580.1,1836.5,581z M1820.2,560.7c0.5,1.8,0.8,3.5,1.2,5.3c-1-2.6-2.2-5.2-3.6-7.8
	C1818.6,559,1819.4,559.9,1820.2,560.7z M1802.5,554.7c0.2,0.5,0.4,1,0.6,1.5c-0.3-0.3-0.6-0.6-0.9-0.9
	C1802.3,555.1,1802.4,554.9,1802.5,554.7z M1807.7,573.6c-3.6-3.1-7.8-6.2-12.4-9.1c1.4-1.6,2.7-3.1,3.8-4.7
	C1802.3,564.4,1805.2,569,1807.7,573.6z M1794.7,565.1c3.7,3.5,7,7.1,9.8,10.6c2.1,4.2,3.6,8.4,4.6,12.6c0,1.2,0,2.4,0,3.5
	c-0.7,2.4-1.5,4.8-2.5,7.2c-0.6-7.9-4-15.8-11.6-23.1c1.3,2.5,2.2,5,2.9,7.5c-0.5-0.8-0.9-1.5-1.4-2.3c-0.6-3.1-1.7-6.2-3.6-9.1
	c0.1,1.3,0.1,2.5,0,3.8c-1.2-1.7-2.4-3.3-3.7-5C1791.1,569,1793,567,1794.7,565.1z M1746.4,532.4c-4.6-3-9.5-5.9-14.8-8.7
	c0.1-3.2-0.1-6.3-0.5-9.5C1737.1,520.2,1742.2,526.3,1746.4,532.4z M1731.5,525.2c8.2,6.1,15.3,12.2,21.5,18.3
	c1.3,2.5,2.5,5,3.6,7.5c-1.5,1.8-3.1,3.5-4.9,5.3c-5.6-7.3-12.6-14.4-21.3-21.3C1731,531.7,1731.4,528.4,1731.5,525.2z
	 M1729.6,539.3c3.3,4.1,6.2,8.3,8.7,12.4c-0.6-0.3-1.1-0.6-1.7-0.9c0.7,0.5,1.4,1,2.1,1.6c2.2,3.7,4.1,7.3,5.7,10.9
	c-1.1,1-2.3,1.9-3.4,2.9c-1.3-1.6-2.7-3.2-4.2-4.8c0.5-1.5,0.9-3,1.1-4.5c-0.7,1.1-1.5,2.1-2.3,3.2c-2.9-3.1-6.1-6.2-9.5-9.3
	C1727.5,547,1728.7,543.1,1729.6,539.3z M1712,546.7c-1.5,3.1-3.1,6.2-4.8,9.3c-5.2-6.7-11.6-13.4-19.5-19.7
	c-0.3-1.5-0.7-3.1-1.1-4.6c0.3-2.2,0.5-4.3,0.6-6.5C1696.9,532.3,1705.1,539.6,1712,546.7z M1661.8,547.5c0.7,2.5,1.3,5,1.7,7.4
	c-0.5,0.9-1,1.8-1.5,2.7c-0.7-0.5-1.4-1.1-2.1-1.6C1660.7,553.2,1661.3,550.4,1661.8,547.5z M1646.8,551.7c-0.6,1.5-1.2,2.9-1.8,4.4
	c0.1-2,0.1-4,0-6C1645.6,550.6,1646.2,551.1,1646.8,551.7z M1592.4,558.6c0.6,1.9,1.1,3.7,1.5,5.6c-0.9-0.4-1.9-0.8-2.8-1.3
	C1591.6,561.4,1592,560,1592.4,558.6z M1583.2,559.6c-0.1,0.2-0.2,0.5-0.4,0.7c0.1-0.3,0.2-0.5,0.2-0.8
	C1583.1,559.6,1583.2,559.6,1583.2,559.6z M1502.9,544.3c-0.7-0.4-1.4-0.8-2.2-1.2c-0.4-0.8-0.8-1.7-1.2-2.5
	C1500.7,541.8,1501.8,543,1502.9,544.3z M1483.7,533.2c2.9,6.9,5.1,13.8,6.8,20.5c-1.9-3.2-3.9-6.4-6.2-9.7
	C1484.6,540.4,1484.5,536.8,1483.7,533.2z M1444,522.8c-0.3-0.4-0.6-0.7-0.9-1.1C1443.5,522.1,1443.7,522.4,1444,522.8z
	 M1446.1,525.7c-0.6-0.9-1.2-1.7-1.9-2.6C1444.9,524,1445.5,524.8,1446.1,525.7z M1448.6,566.8c-2.5-4-5.9-7.9-10.3-11.7
	c0-1.3,0-2.6,0-3.8c3.4,3.3,6.5,6.6,9.4,9.9C1448,563.1,1448.3,565,1448.6,566.8z M1389.5,525.6c9,9.7,16.2,19.4,22.1,28.7
	c0,1.4,0,2.7,0,4.1c-2.7-2-5.6-4-8.5-5.9c-0.8-1.4-1.7-2.8-2.8-4.2c0.1,0.8,0.1,1.6,0,2.3c-1.9-1.3-3.9-2.5-5.9-3.7
	c-0.6-2.6-1.1-5.1-1.4-7.7c0,0,0,0,0,0c-0.1-1.1-0.2-2.1-0.3-3.2c0,0,0,0,0,0c0-0.5-0.1-1.1-0.1-1.6c0,0,0,0,0,0
	c-0.1-1.8-0.1-3.6-0.1-5.4c-0.5-0.3-1-0.6-1.5-1C1390.5,527.2,1390,526.4,1389.5,525.6z M1378.3,544.5c0.3,0.7,0.5,1.3,0.8,2
	c-0.4,3.2-1.1,6.4-2,9.5c-1.3-2.5-3-5.1-4.9-7.6C1374.1,547.1,1376.2,545.8,1378.3,544.5z M1317.3,530.9c-0.6,0.9-1.3,1.9-1.8,2.8
	c-0.6,0.4-1.2,0.7-1.8,1.1c-2.6-2-5.5-3.9-8.6-5.8c1.4-0.9,2.9-1.7,4.3-2.6C1312.2,527.9,1314.8,529.4,1317.3,530.9z M1304.8,529.1
	c2.3,2.5,4.3,5,6,7.5c-3.1,2-6,4.1-8.8,6.2c-1.3-2.9-2.9-5.8-5-8.7C1299.5,532.4,1302.1,530.8,1304.8,529.1z M1287.7,540.5
	c1,4.6,1.3,9.2,1,13.7c-0.3,0.3-0.6,0.6-1,1c-1.5,0.7-3,1.4-4.5,2.1c-0.6-3.4-1.9-6.9-4.1-10.2
	C1282,544.9,1284.8,542.7,1287.7,540.5z M1258.5,510.5c-7.5,10.4-8.5,21.3-5.4,32.2c-1.9,0.9-3.7,1.9-5.5,2.8
	c-0.1-0.2-0.1-0.4-0.2-0.6c-0.1,0.3-0.2,0.6-0.4,0.8c-4.4,2.3-8.6,4.7-12.5,7.2c-1.4-4.5-3.3-9-5.8-13.7
	C1235.9,529.7,1245.5,520,1258.5,510.5z M1210.1,543.1c-0.7,0.7-1.4,1.5-2,2.2c-0.9-0.6-1.9-1.2-2.9-1.7c0.6-1.3,1.1-2.6,1.6-3.8
	c0.5-0.6,1.1-1.2,1.7-1.7C1209.1,539.7,1209.7,541.4,1210.1,543.1z M1189.7,536.4c-1.3,2.3-2.8,4.6-4.3,6.8c-0.7-0.6-1.3-1.3-2-1.9
	C1185.4,539.7,1187.5,538.1,1189.7,536.4z M1168.8,544.5c-0.9,0.7-1.9,1.3-2.8,2c-4.1-2.6-8.4-5.2-13.1-7.7
	c-0.3-1.3-0.7-2.6-1.2-3.9c0,0,0.1-0.1,0.1-0.1c0,0-0.1,0.1-0.1,0.1c-0.9-2.4-1.9-4.8-3.3-7.3c0.5-0.6,1.1-1.2,1.7-1.8
	C1157.6,532.2,1163.7,538.5,1168.8,544.5z M1146.3,522.6c-0.2,0.2-0.4,0.3-0.6,0.5c-0.5-0.8-1.1-1.6-1.7-2.4
	C1144.7,521.3,1145.5,522,1146.3,522.6z M1128.4,538.1c-1.6,1.7-3.1,3.3-4.5,5c-1.4-1.5-3-3-4.7-4.5c0.5-5.8-0.4-11.6-2.8-17.2
	C1121.3,527,1125.2,532.6,1128.4,538.1z M1081.5,533.1c0,0.2,0,0.4,0,0.7c-0.1-0.1-0.3-0.2-0.4-0.2
	C1081.2,533.4,1081.3,533.2,1081.5,533.1z M1074,537.7c-0.7,0.6-1.3,1.1-2,1.7c0.1-1,0.2-2,0.4-3
	C1073,536.8,1073.5,537.2,1074,537.7z M1057.1,525c4.4,3,8.4,5.9,12.2,8.9c-3.1,3.4-5.3,7-6.9,10.5c-0.8-0.4-1.6-0.7-2.4-1.1
	c-1.8-4.2-4.4-8.4-7.8-12.6C1053.7,528.8,1055.3,526.9,1057.1,525z M1046.4,547.6c-1.2,2.3-2.8,4.5-4.6,6.8c0.7-4.2,2-8.4,3.9-12.6
	C1046,543.7,1046.3,545.6,1046.4,547.6z M1025,552.5c-0.7-0.3-1.4-0.6-2.1-1c-0.2-1-0.3-2.1-0.4-3.1
	C1023.4,549.8,1024.2,551.1,1025,552.5z M1011.2,551.5c-0.3-0.6-0.6-1.2-0.9-1.8c0.3,0.2,0.7,0.4,1,0.5
	C1011.3,550.7,1011.3,551.1,1011.2,551.5z M1007.7,548.4c-0.1,3.7-1,7.4-2.6,11.1c-0.4,0.5-0.8,1-1.2,1.5c-2.3-0.9-4.7-1.8-7.1-2.7
	c0-0.1,0-0.3,0-0.4c2.7-3.7,5.1-7.5,7.1-11.3C1005.2,547.1,1006.4,547.8,1007.7,548.4z M988.2,539.3c-0.3,0.5-0.6,0.9-0.9,1.4
	c-0.4-0.8-0.8-1.5-1.2-2.3C986.8,538.7,987.5,539,988.2,539.3z M966.8,539.8c-0.4,1.9-0.6,3.8-0.7,5.7c-3.7-2.3-7.7-4.5-12-6.7
	c-1.4-7.5-1.3-15.1,0.6-22.5C960.4,524.3,964.3,532.2,966.8,539.8z M933,552.8c-1-0.7-2-1.4-3-2.1c-2.6-4.1-6.1-8.2-10.6-12.1
	c0.1-0.6,0.1-1.2,0.1-1.8C924.8,542.3,929.2,547.6,933,552.8z M884.3,567.8c-0.5,0.5-1,1.1-1.5,1.6c-1.5-1.1-2.9-2.2-4.2-3.3
	c0.4-0.5,0.7-0.9,1-1.4C881.3,565.8,882.8,566.8,884.3,567.8z M843.7,569c-0.3-0.1-0.7-0.3-1-0.4c-0.4-1-0.9-2-1.4-3
	c0.1-1.2,0.2-2.4,0.2-3.6c1.2,0.9,2.3,1.9,3.4,2.8C844.6,566.2,844.2,567.6,843.7,569z M822.6,548.5c3.6,5.2,5.9,10.3,7.2,15.4
	c-0.9,2.9-2.2,5.8-3.7,8.6c-0.1-9-2.7-18.4-9.2-27.5C818.9,546.2,820.8,547.3,822.6,548.5z M800.3,568.3c-0.4,0.5-0.7,1.1-1.1,1.6
	c-1.2-1.5-2.5-3.1-3.9-4.6c0-0.1,0-0.2,0-0.3C797,566.1,798.7,567.2,800.3,568.3z M761.6,546.5c3.3,2.9,6.1,5.7,8.7,8.6
	c0.4,3.2,0.5,6.4,0.5,9.5c-2.3-0.9-4.6-1.8-6.9-2.8c-2.5-4.2-6.3-8.3-11.7-12.2c1.7,2.5,2.9,5,3.8,7.5c-6.1-7.6-14-15.6-23.9-23.6
	C742.8,537.8,752.6,542.2,761.6,546.5z M707.6,542.2c0.1,0.2,0.2,0.3,0.3,0.5c-0.7-0.3-1.4-0.5-2.2-0.8c-0.5-0.7-1.1-1.4-1.7-2.2
	C705.3,540.5,706.5,541.3,707.6,542.2z M690.7,547c1.9,4.4,3.3,8.7,4.3,13c-0.6,0.2-1.2,0.4-1.7,0.6c-6.1-2-12.3-3.9-18.8-5.7
	C679.5,552.3,684.9,549.6,690.7,547z M669.8,554.2c-0.8,0.3-1.5,0.7-2.3,1c-1-0.9-2-1.9-3.1-2.8C666.2,553,668,553.6,669.8,554.2z
	 M594.9,508.2c2.4,1.7,4.6,3.4,6.8,5.2c-0.2,0.1-0.4,0.2-0.6,0.4c-2.9-1.3-5.9-2.5-9-3.7C593,509.4,594,508.8,594.9,508.2z M599,515
	c-10.6,6.5-19.2,13.5-26.1,20.6c-2.8-1.6-5.8-3.2-8.8-4.7c7.6-6.8,16.5-13.6,27-20.3C593.8,512,596.5,513.5,599,515z M550.1,527.3
	c-0.1,2-0.3,4-0.6,6c-1.1,0.9-2.2,1.8-3.3,2.6c-6-4-12.6-7.9-20.1-11.6c1.6-2.5,3.4-5,5.4-7.5C538.2,520.3,544.4,523.8,550.1,527.3z
	 M525.6,525.3c4.2,3.2,7.9,6.4,11.4,9.6c-2-0.6-3.9-1.2-5.9-1.9c2.4,0.9,4.7,1.9,7,2.8c1.3,1.3,2.6,2.5,3.8,3.8
	c-3.9,3.5-7.5,6.9-10.7,10.4c-3-1-6.1-1.9-9.2-2.9c3.2-2.8,6.8-5.6,10.8-8.4c-5.1,2.4-9.7,4.9-13.8,7.5c-1.1-0.3-2.1-0.6-3.2-1
	C518,538.8,521.2,532,525.6,525.3z M501.4,541.6c-0.4,0.7-0.8,1.4-1.1,2.1c-0.6-1.1-1.3-2.1-2-3.1
	C499.3,540.9,500.3,541.3,501.4,541.6z M489.4,559.3c-1.5-0.5-3.1-1-4.6-1.4c-0.7-3.8-0.8-7.6-0.1-11.3c-2.6,3.1-4.2,6.4-5.1,9.8
	c-2.6-0.8-5.3-1.5-8-2.3c0-1.2,0.1-2.3,0-3.5c1.8-2.8,3.9-5.5,6.4-8.2c-2.4,1.6-4.7,3.2-6.8,4.8c-0.4-2.3-0.9-4.6-1.8-6.8
	c0.5-0.8,0.9-1.7,1.5-2.5c6.5,3.8,12.5,7.6,18,11.4C489.4,552.6,489.5,556,489.4,559.3z M470.6,537.6c-0.6,0.5-1.1,0.9-1.7,1.4
	c-0.5-1.1-1-2.2-1.5-3.2C468.4,536.4,469.5,537,470.6,537.6z M459.2,532c1.3,9.6-1,19.2-5.6,28.6C453.2,551.4,454.7,541.7,459.2,532
	z M429,567.1c-0.7,1.2-1.5,2.5-2.3,3.7c-1.5-2.2-3-4.5-4.4-6.8C424.6,565.1,426.9,566.1,429,567.1z M392.1,542.9c-2.5,1-5,2-7.5,3
	c-0.1-4.1,0.2-8.3,0.9-12.6C388.2,536.5,390.4,539.7,392.1,542.9z M376.3,527.9c-1,1.9-1.8,3.7-2.5,5.6c-8.4,3.7-16.2,7.5-23.5,11.5
	c-0.7-1.2-1.3-2.5-1.9-3.7C357,536.8,366.2,532.3,376.3,527.9z M330.7,532.6c0.6,4.2,1.8,8.5,3.3,12.7c-0.5,0.3-1.1,0.5-1.6,0.8
	c-2.3-3.2-4.9-6.3-7.8-9.5C326.6,535.3,328.6,533.9,330.7,532.6z M288.2,512.8c6.8,6,12.4,12.1,17,18.1c0.5,4.7,0.2,9.4-0.8,14.1
	c-0.8,0.5-1.5,1-2.3,1.5c-1.4-2.6-2.3-5.3-2.9-7.9c-1.4,3.3-1.6,6.8-0.7,10.4c-3,2.1-5.8,4.2-8.5,6.3c-4.6-4-9.7-8.1-15.4-12.1
	c6.8-6.6,14.9-13.2,24.6-19.7c-10.9,5.3-20.3,11.1-28.4,17.1c-1.5-1-3.1-2-4.7-3.1C271.8,529.4,279.1,521.1,288.2,512.8z
	 M252.2,536.5c0.1,0.5,0.2,1.1,0.4,1.6c-1.1,1.2-2.1,2.4-3.1,3.6c-0.6,0.3-1.2,0.7-1.8,1c-3.9-4.2-8.7-8.3-14.6-12.3
	c0.7-1.9,1.4-3.9,2.3-5.8C241.5,528.6,247.1,532.5,252.2,536.5z M217.1,513.9c3,1.6,5.9,3.3,8.7,4.9c-3,1.9-5.9,3.7-8.6,5.7
	c-1.9-1.1-3.9-2.2-6-3.3C213.1,518.7,215,516.3,217.1,513.9z M214.3,526.5c-5.4,4-10.2,8-14.5,12.1c2.8-5.1,6.2-10.4,10.2-15.8
	C211.5,524,212.9,525.2,214.3,526.5z M173.3,560.1c-0.2,0.5-0.4,1-0.6,1.5c-0.4-0.2-0.8-0.3-1.2-0.5c-0.6-5.1-0.8-10.6-0.5-16.3
	c1.7,1.2,3.3,2.4,4.9,3.6C174.2,552.2,173.4,556.2,173.3,560.1z M149,555.4c-0.7-1.2-1.3-2.4-1.9-3.5
	C147.8,553,148.4,554.2,149,555.4z M138.5,547.2c0.5,7.4,3.8,14.9,8.7,22.2c-0.6,1.8-1,3.5-1.4,5.2c-0.3-0.1-0.5-0.2-0.8-0.4
	c-1.3-2.1-2.9-4.3-5-6.4c-0.1-1.7,0-3.5,0.3-5.2c-0.8,1.1-1.5,2.3-2.1,3.5c-0.1-0.1-0.1-0.1-0.2-0.2
	C136.6,559.9,136.5,553.5,138.5,547.2z M83.7,550.3c1.6,0.6,3.2,1.3,4.7,1.9c2.9,4.8,6.5,9.5,10.5,14.1c0.2,2.2,0.6,4.4,1.4,6.6
	c-0.4-0.1-0.7-0.3-1.1-0.4c-1.2-1.3-2.4-2.7-3.6-4C92.6,562.5,88.8,556.4,83.7,550.3z M52.2,530.5c-3.1,4.6-5.1,9.3-6.4,14.1
	c-1.9-7.2-2.9-14.8-2.4-22.6C46.5,524.8,49.5,527.6,52.2,530.5z M28.3,582.1c3.2,3.1,6.2,5.9,9.1,8.5c-4.9-4-10.7-8-17.4-11.8
	c-0.4-0.8-0.8-1.5-1.3-2.3C21.8,578.4,25,580.3,28.3,582.1z M23.2,585.4c0.9,0.9,1.8,1.8,2.7,2.7c-0.7-0.5-1.4-0.9-2.2-1.4
	C23.6,586.3,23.4,585.9,23.2,585.4z M29.6,615.7c0-4.1-0.4-8.4-1.2-12.9c4.7,1.9,8.6,3.3,11.3,4.4c3.1,6.2,4.9,12.1,5.7,17.6
	c-0.8,1.8-1.8,3.7-2.9,5.4C39.2,625.7,35,620.8,29.6,615.7z M272.3,625.2c0.2,0.2,0.4,0.5,0.6,0.7c-0.3,0.1-0.6,0.3-0.8,0.4
	C272.1,626,272.2,625.6,272.3,625.2z M447.1,628.6l0.2,0c-0.2,0.1-0.4,0.1-0.7,0.2C446.8,628.8,447,628.7,447.1,628.6z M756.8,620.7
	l8.3-0.4c-1,1.6-2.1,3.2-3.2,4.7c-2.1,1.3-4.2,2.5-6.4,3.7C755.9,626.7,756.5,624,756.8,620.7z M877.9,624.7c0,0.1,0,0.3,0,0.4
	c-0.5,0.6-0.9,1-1.1,1.3c-0.3-0.2-0.7-0.6-1.2-0.9C876.4,625.2,877.2,625,877.9,624.7z M877,626.5l0.8,0c0,0.2-0.1,0.4-0.1,0.6
	C877.7,627,877.5,626.8,877,626.5z M913,627.4L913,627.4C913,627.4,913,627.4,913,627.4C913,627.4,913,627.4,913,627.4z M2159.6,610
	c0.5-0.7,1-1.3,1.5-2c3,1.9,5.9,3.8,8.6,5.6c-0.3,0.3-0.5,0.5-0.8,0.8C2166,612.9,2162.8,611.4,2159.6,610z M2174.5,623.5l0.7,0
	c-0.7,0.3-1.4,0.7-2.1,1C2173.6,624.2,2174,623.9,2174.5,623.5z M2245.3,618.4c0.4-0.2,0.8-0.4,1.2-0.6c0.4,1,0.7,2,1,3
	C2246.8,620,2246,619.2,2245.3,618.4z M2428.5,622.6c1.6-4.5,2.9-9.1,3.9-13.7c1.5-2.1,2.9-4.1,4.3-6.3c0.4,5,0.4,10-0.1,15
	c-0.7-1.8-1.4-3.6-2.4-5.3c0.6,3.7,0.9,7.4,0.8,11.2c-1.6,1.5-3.4,3-5.2,4.5C2429.4,626.2,2429,624.4,2428.5,622.6z M2496.5,612.3
	c5.9-4,11.3-8,15.8-12c0,1-0.1,2-0.1,3c-4.9,6.1-11.6,12-19,17.5C2494.4,618,2495.5,615.2,2496.5,612.3z M2500.9,626.8
	c1.7-1.1,3.5-2.2,5.3-3.3c-0.2,0.4-0.3,0.8-0.5,1.3C2504.1,625.4,2502.5,626.1,2500.9,626.8z M2552.7,609.4c0.1-0.3,0.3-0.6,0.4-0.9
	c0.3-0.2,0.6-0.3,0.8-0.5C2553.5,608.5,2553.1,608.9,2552.7,609.4z"/>
<rect y="601.3" fill="#181D23" width="2576.8" height="29.7"/>
</svg>
