<?xml version="1.0" encoding="utf-8"?>
<!-- Generator: Adobe Illustrator 24.3.0, SVG Export Plug-In . SVG Version: 6.00 Build 0)  -->
<svg version="1.1" id="Layer_1" xmlns="http://www.w3.org/2000/svg" xmlns:xlink="http://www.w3.org/1999/xlink" x="0px" y="0px"
	 viewBox="0 0 217 566" enable-background="new 0 0 217 566" xml:space="preserve">
<path fill="#281E22" d="M52.3,379.9c-13.2-4.5-30.9,13.1-44.3,44c-8.9,22-4.7,88.3-0.3,101.6c4.4,13.3,23.7-3.2,26.5-8.7
	c4.4-8.8,4.6-53,4.6-57.4c0-4.4,13.3-13.2,22.2-22C56.6,424,52.3,388.7,52.3,379.9z"/>
<path fill="#281E22" d="M167.2,380.3c13.3-4.4,30.9,13.3,44,44.3c8.7,22.1,4.1,88.3-0.3,101.6c-4.5,13.2-23.7-3.3-26.5-8.9
	c-4.4-8.9-4.2-53-4.2-57.4c0-4.4-13.2-13.3-22-22.1C162.6,424.4,167.1,389.1,167.2,380.3z"/>
<path fill="#E6E6E6" d="M110.5,135.6c-22.1,12.6-72,42.2-71,142.7c-0.3,83.9,17.1,159,21.5,167.9c13.3,0.1,48.6,0.2,48.6,0.2
	s35.3,0.1,48.6,0.2c4.5-8.8,22.4-88.2,22.7-167.7C181.1,177.2,132.1,145.6,110.5,135.6z"/>
<circle fill="#263740" cx="110.1" cy="265.3" r="44.2"/>
<path fill="#C2E2F2" d="M110,291.8c-14.6-0.1-26.4-12-26.4-26.6c0.1-14.6,12-26.4,26.6-26.4c14.6,0.1,26.4,12,26.4,26.6
	C136.6,280,124.7,291.8,110,291.8z"/>
<path fill="#281E22" d="M110.4,185.8c16.2,0.1,31.6-3.6,45.4-10c-17.1-29.3-37.8-42.9-45.2-43c-7.3,0-28.2,13.5-45.5,42.7
	C78.8,182,94.2,185.7,110.4,185.8z"/>
<g>
	<path fill="#181D23" d="M166.8,473c0,4.9-4,8.8-8.9,8.8l-97.1-0.3c-4.9,0-8.8-4-8.8-8.9l0.1-17.7c0-4.9,4-8.8,8.9-8.8l97.1,0.3
		c4.9,0,8.8,4,8.8,8.9L166.8,473z"/>
</g>
<path fill="#181D23" d="M87.4,463.9c0,4.9,0.1,11,0.3,17.7l47.8,0.2c0.3-6.7,0.4-12.8,0.4-17.7c0-4.9-0.1-11-0.3-17.7l-47.8-0.2
	C87.5,452.9,87.4,459,87.4,463.9z"/>
<ellipse transform="matrix(3.411002e-03 -1 1 3.411002e-03 -352.6238 574.0909)" fill="#281E22" cx="111.7" cy="464" rx="75.1" ry="15.5"/>
</svg>
