<?xml version="1.0" encoding="utf-8"?>
<svg version="1.1" id="Layer_1" xmlns="http://www.w3.org/2000/svg" xmlns:xlink="http://www.w3.org/1999/xlink" x="0px" y="0px"
	 viewBox="0 0 80 80" enable-background="new 0 0 80 80" xml:space="preserve">
<circle fill="#FAFBFB" cx="40.3" cy="41" r="29.7"/>
<g>
	<circle fill="#E0E0E0" cx="21.6" cy="30.3" r="4.7"/>
	<path fill="#BDBDBD" d="M17.3,30.7c0-2.6,2.1-4.7,4.7-4.7c1.2,0,2.3,0.4,3.1,1.2c-0.9-1-2.1-1.6-3.5-1.6c-2.6,0-4.7,2.1-4.7,4.7
		c0,1.4,0.6,2.6,1.6,3.5C17.8,33,17.3,31.9,17.3,30.7z"/>
	<path fill="#F5F5F5" d="M21.8,25.6C21.8,25.6,21.7,25.7,21.8,25.6c2.4,0.1,4.5,2.1,4.5,4.7c0,2.6-2.1,4.7-4.7,4.7
		c-2.6,0-4.6-2-4.7-4.6c0,0,0,0.1,0,0.1c0,2.7,2.2,4.9,4.9,4.9c2.7,0,4.9-2.2,4.9-4.9C26.6,27.8,24.5,25.6,21.8,25.6z"/>
</g>
<g>
	<circle fill="#E0E0E0" cx="51.1" cy="23.9" r="2.3"/>
	<path fill="#BDBDBD" d="M49,24.1c0-1.3,1-2.3,2.3-2.3c0.6,0,1.1,0.2,1.5,0.6c-0.4-0.5-1.1-0.8-1.7-0.8c-1.3,0-2.3,1-2.3,2.3
		c0,0.7,0.3,1.3,0.8,1.7C49.2,25.2,49,24.7,49,24.1z"/>
	<path fill="#F5F5F5" d="M51.2,21.5C51.2,21.5,51.2,21.5,51.2,21.5c1.2,0,2.2,1.1,2.2,2.3c0,1.3-1,2.3-2.3,2.3c-1.3,0-2.3-1-2.3-2.3
		c0,0,0,0,0,0c0,1.3,1.1,2.4,2.4,2.4c1.3,0,2.4-1.1,2.4-2.4C53.6,22.6,52.5,21.5,51.2,21.5z"/>
</g>
<g>
	<circle fill="#E0E0E0" cx="58.7" cy="47.6" r="5.8"/>
	<path fill="#BDBDBD" d="M53.4,48.1c0-3.2,2.6-5.8,5.8-5.8c1.5,0,2.8,0.6,3.9,1.5c-1.1-1.2-2.6-2-4.4-2c-3.2,0-5.8,2.6-5.8,5.8
		c0,1.7,0.8,3.3,2,4.4C53.9,50.9,53.4,49.5,53.4,48.1z"/>
	<path fill="#F5F5F5" d="M58.9,41.7c0,0-0.1,0-0.1,0c3.2,0.1,5.7,2.6,5.7,5.8c0,3.2-2.6,5.8-5.8,5.8c-3.2,0-5.8-2.6-5.8-5.7
		c0,0,0,0.1,0,0.1c0,3.3,2.7,6.1,6.1,6.1c3.3,0,6.1-2.7,6.1-6.1C65,44.4,62.3,41.7,58.9,41.7z"/>
</g>
<g>
	<circle fill="#E0E0E0" cx="45.2" cy="59.5" r="5.8"/>
	<path fill="#BDBDBD" d="M39.9,60c0-3.2,2.6-5.8,5.8-5.8c1.5,0,2.8,0.6,3.9,1.5c-1.1-1.2-2.6-2-4.4-2c-3.2,0-5.8,2.6-5.8,5.8
		c0,1.7,0.8,3.3,2,4.4C40.5,62.8,39.9,61.5,39.9,60z"/>
	<path fill="#F5F5F5" d="M45.5,53.6c0,0-0.1,0-0.1,0c3.2,0.1,5.7,2.6,5.7,5.8c0,3.2-2.6,5.8-5.8,5.8c-3.2,0-5.8-2.6-5.8-5.7
		c0,0,0,0.1,0,0.1c0,3.3,2.7,6.1,6.1,6.1c3.3,0,6.1-2.7,6.1-6.1C51.5,56.4,48.8,53.6,45.5,53.6z"/>
</g>
<g>
	
		<ellipse transform="matrix(0.1602 -0.9871 0.9871 0.1602 -26.9077 80.2333)" fill="#E0E0E0" cx="33.7" cy="55.9" rx="3.3" ry="3.3"/>
	<path fill="#BDBDBD" d="M30.7,56.2c0-1.8,1.5-3.3,3.3-3.3c0.8,0,1.6,0.3,2.2,0.8c-0.6-0.7-1.5-1.1-2.5-1.1c-1.8,0-3.3,1.5-3.3,3.3
		c0,1,0.4,1.9,1.1,2.5C31,57.8,30.7,57,30.7,56.2z"/>
	<path fill="#F5F5F5" d="M33.8,52.6C33.8,52.6,33.8,52.6,33.8,52.6c1.7,0,3.2,1.5,3.2,3.3c0,1.8-1.5,3.3-3.3,3.3
		c-1.8,0-3.2-1.4-3.3-3.2c0,0,0,0,0,0.1c0,1.9,1.5,3.4,3.4,3.4s3.4-1.5,3.4-3.4C37.2,54.2,35.7,52.6,33.8,52.6z"/>
</g>
<g>
	
		<ellipse transform="matrix(0.9732 -0.2298 0.2298 0.9732 -6.8679 16.2211)" fill="#E0E0E0" cx="66.2" cy="37.6" rx="2.2" ry="2.2"/>
	<path fill="#BDBDBD" d="M64.2,37.8c0-1.2,1-2.2,2.2-2.2c0.6,0,1.1,0.2,1.5,0.6c-0.4-0.5-1-0.8-1.7-0.8c-1.2,0-2.2,1-2.2,2.2
		c0,0.7,0.3,1.3,0.8,1.7C64.4,38.9,64.2,38.4,64.2,37.8z"/>
	<path fill="#F5F5F5" d="M66.3,35.4C66.3,35.4,66.3,35.4,66.3,35.4c1.2,0,2.2,1,2.2,2.2c0,1.2-1,2.2-2.2,2.2c-1.2,0-2.2-1-2.2-2.2
		c0,0,0,0,0,0c0,1.3,1,2.3,2.3,2.3c1.3,0,2.3-1,2.3-2.3C68.7,36.4,67.6,35.4,66.3,35.4z"/>
</g>
<g>
	<circle fill="#E0E0E0" cx="24.6" cy="40.4" r="3"/>
	<path fill="#BDBDBD" d="M21.9,40.6c0-1.6,1.3-3,3-3c0.8,0,1.4,0.3,2,0.7c-0.5-0.6-1.3-1-2.2-1c-1.6,0-3,1.3-3,3
		c0,0.9,0.4,1.7,1,2.2C22.2,42.1,21.9,41.4,21.9,40.6z"/>
	<path fill="#F5F5F5" d="M24.7,37.4C24.7,37.4,24.7,37.4,24.7,37.4c1.6,0,2.8,1.3,2.8,3c0,1.6-1.3,3-3,3c-1.6,0-2.9-1.3-3-2.9
		c0,0,0,0,0,0.1c0,1.7,1.4,3.1,3.1,3.1c1.7,0,3.1-1.4,3.1-3.1C27.8,38.8,26.4,37.4,24.7,37.4z"/>
</g>
<g>
	<circle fill="#E0E0E0" cx="33.8" cy="29.6" r="2.5"/>
	<path fill="#BDBDBD" d="M31.6,29.8c0-1.4,1.1-2.5,2.5-2.5c0.6,0,1.2,0.2,1.6,0.6c-0.5-0.5-1.1-0.8-1.9-0.8c-1.4,0-2.5,1.1-2.5,2.5
		c0,0.7,0.3,1.4,0.8,1.9C31.8,31,31.6,30.4,31.6,29.8z"/>
	<path fill="#F5F5F5" d="M33.9,27.1C33.9,27.1,33.9,27.1,33.9,27.1c1.3,0,2.4,1.1,2.4,2.5c0,1.4-1.1,2.5-2.5,2.5
		c-1.4,0-2.5-1.1-2.5-2.4c0,0,0,0,0,0c0,1.4,1.2,2.6,2.6,2.6c1.4,0,2.6-1.2,2.6-2.6C36.5,28.2,35.4,27.1,33.9,27.1z"/>
</g>
<g>
	<circle fill="#E0E0E0" cx="25.8" cy="58.9" r="1.7"/>
	<path fill="#BDBDBD" d="M24.2,59.1c0-0.9,0.8-1.7,1.7-1.7c0.4,0,0.8,0.2,1.1,0.4c-0.3-0.3-0.8-0.6-1.3-0.6c-0.9,0-1.7,0.8-1.7,1.7
		c0,0.5,0.2,0.9,0.6,1.3C24.4,59.9,24.2,59.5,24.2,59.1z"/>
	<path fill="#F5F5F5" d="M25.8,57.2C25.8,57.2,25.8,57.2,25.8,57.2c0.9,0,1.6,0.8,1.6,1.7c0,0.9-0.8,1.7-1.7,1.7
		c-0.9,0-1.7-0.7-1.7-1.6c0,0,0,0,0,0c0,1,0.8,1.7,1.7,1.7c1,0,1.7-0.8,1.7-1.7C27.6,58,26.8,57.2,25.8,57.2z"/>
</g>
<path opacity="0.1" fill="#212121" d="M40.3,58C27,58,15.6,49.9,10.7,38.4c-0.1,0.8-0.1,1.7-0.1,2.5c0,16.4,13.3,29.7,29.7,29.7
	S70,57.4,70,41c0-0.9,0-1.7-0.1-2.5C65,49.9,53.6,58,40.3,58z"/>
<path opacity="0.1" fill="#212121" d="M40.3,64.8c-12.4,0-23.2-6.8-28.9-17c3.1,13.1,14.9,22.9,28.9,22.9s25.8-9.8,28.9-22.9
	C63.5,57.9,52.7,64.8,40.3,64.8z"/>
</svg>
