<?xml version="1.0" encoding="utf-8"?>
<svg version="1.1" id="Layer_1" xmlns="http://www.w3.org/2000/svg" xmlns:xlink="http://www.w3.org/1999/xlink" x="0px" y="0px"
	 viewBox="0 0 2560 1440" enable-background="new 0 0 2560 1440" xml:space="preserve">
<circle fill-rule="evenodd" clip-rule="evenodd" fill="#FFFFFF" cx="2445.4" cy="101.5" r="4"/>
<circle fill-rule="evenodd" clip-rule="evenodd" fill="#FFFFFF" cx="1514.4" cy="873" r="4"/>
<path fill-rule="evenodd" clip-rule="evenodd" fill="#FFFFFF" d="M1946.9,751c0,1.5-1.2,2.7-2.7,2.7c-1.5,0-2.7-1.2-2.7-2.7
	s1.2-2.7,2.7-2.7C1945.7,748.3,1946.9,749.5,1946.9,751z"/>
<path opacity="0.5" fill-rule="evenodd" clip-rule="evenodd" fill="#FFFFFF" d="M824.8,669.2c0,1.5-1.2,2.7-2.7,2.7
	c-1.5,0-2.7-1.2-2.7-2.7c0-1.5,1.2-2.7,2.7-2.7C823.6,666.5,824.8,667.7,824.8,669.2z"/>
<path fill-rule="evenodd" clip-rule="evenodd" fill="#FFFFFF" d="M1050.8,730.5c0,1.5-1.2,2.7-2.7,2.7c-1.5,0-2.7-1.2-2.7-2.7
	s1.2-2.7,2.7-2.7C1049.6,727.8,1050.8,729,1050.8,730.5z"/>
<path opacity="0.5" fill-rule="evenodd" clip-rule="evenodd" fill="#FFFFFF" d="M1801.1,235.4c0,1.5-1.2,2.7-2.7,2.7
	c-1.5,0-2.7-1.2-2.7-2.7s1.2-2.7,2.7-2.7C1799.9,232.7,1801.1,233.9,1801.1,235.4z"/>
<path opacity="0.5" fill-rule="evenodd" clip-rule="evenodd" fill="#FFFFFF" d="M925.3,939.6c0,1.5-1.2,2.7-2.7,2.7
	c-1.5,0-2.7-1.2-2.7-2.7c0-1.5,1.2-2.7,2.7-2.7C924.1,936.9,925.3,938.1,925.3,939.6z"/>
<path opacity="0.5" fill-rule="evenodd" clip-rule="evenodd" fill="#FFFFFF" d="M1091.5,330.3c0,1.5-1.2,2.7-2.7,2.7
	c-1.5,0-2.7-1.2-2.7-2.7c0-1.5,1.2-2.7,2.7-2.7C1090.3,327.6,1091.5,328.8,1091.5,330.3z"/>
<circle fill-rule="evenodd" clip-rule="evenodd" fill="#FFFFFF" cx="1355.4" cy="702.1" r="4"/>
<path fill-rule="evenodd" clip-rule="evenodd" fill="#FFFFFF" d="M1162.4,443.1c-0.7-1.7,0.1-3.6,1.8-4.2s3.6,0.1,4.2,1.8
	c0.7,1.7-0.1,3.6-1.8,4.2S1163.1,444.7,1162.4,443.1z"/>
<path fill-rule="evenodd" clip-rule="evenodd" fill="#FFFFFF" d="M2020.3,127.2c-0.7-1.7,0.1-3.6,1.8-4.2c1.7-0.7,3.6,0.1,4.2,1.8
	c0.7,1.7-0.1,3.6-1.8,4.2C2022.9,129.7,2021,128.9,2020.3,127.2z"/>
<path fill-rule="evenodd" clip-rule="evenodd" fill="#FFFFFF" d="M1237.8,187.3c-0.7-1.7,0.1-3.6,1.8-4.2c1.7-0.7,3.6,0.1,4.2,1.8
	s-0.1,3.6-1.8,4.2C1240.4,189.8,1238.5,189,1237.8,187.3z"/>
<path opacity="0.5" fill-rule="evenodd" clip-rule="evenodd" fill="#FFFFFF" d="M427.8,328.7c-0.7-1.7,0.1-3.6,1.8-4.2
	c1.7-0.7,3.6,0.1,4.2,1.8c0.7,1.7-0.1,3.6-1.8,4.2C430.4,331.1,428.5,330.3,427.8,328.7z"/>
<ellipse transform="matrix(0.38 -0.925 0.925 0.38 -739.3233 728.4351)" opacity="0.5" fill-rule="evenodd" clip-rule="evenodd" fill="#FFFFFF" cx="173.7" cy="915.7" rx="3.2" ry="3.2"/>
<path fill-rule="evenodd" clip-rule="evenodd" fill="#FFFFFF" d="M882.4,357.1c-0.7-1.7,0.1-3.6,1.8-4.2c1.7-0.7,3.6,0.1,4.2,1.8
	c0.7,1.7-0.1,3.6-1.8,4.2C885,359.6,883.1,358.8,882.4,357.1z"/>
<ellipse transform="matrix(0.3839 -0.9234 0.9234 0.3839 169.8946 633.8817)" opacity="0.5" fill-rule="evenodd" clip-rule="evenodd" fill="#FFFFFF" cx="560" cy="189.6" rx="3.2" ry="3.2"/>
<path fill-rule="evenodd" clip-rule="evenodd" fill="#FFFFFF" d="M1472,508c-1-2.4,0.1-5.2,2.6-6.2s5.2,0.1,6.2,2.6
	c1,2.4-0.1,5.2-2.6,6.2C1475.7,511.6,1473,510.4,1472,508z"/>
<path fill-rule="evenodd" clip-rule="evenodd" fill="#FFFFFF" d="M1856.1,444c-1-2.4,0.1-5.2,2.6-6.2s5.2,0.1,6.2,2.6
	c1,2.4-0.1,5.2-2.6,6.2C1859.9,447.6,1857.1,446.4,1856.1,444z"/>
<path fill-rule="evenodd" clip-rule="evenodd" fill="#FFFFFF" d="M242.4,496.2c-0.1-2.2,1.7-4.1,3.9-4.1c2.2-0.1,4.1,1.7,4.1,3.9
	c0.1,2.2-1.7,4.1-3.9,4.1C244.3,500.2,242.4,498.4,242.4,496.2z"/>
<path fill-rule="evenodd" clip-rule="evenodd" fill="#FFFFFF" d="M1506.4,307.1c-0.1-2.2,1.7-4.1,3.9-4.1s4.1,1.7,4.1,3.9
	s-1.7,4.1-3.9,4.1C1508.3,311,1506.4,309.3,1506.4,307.1z"/>
<path opacity="0.5" fill-rule="evenodd" clip-rule="evenodd" fill="#FFFFFF" d="M1323.6,464.4c0-1.5,1.1-2.7,2.6-2.8
	c1.5,0,2.7,1.1,2.8,2.6c0,1.5-1.1,2.7-2.6,2.8C1324.9,467.1,1323.7,465.9,1323.6,464.4z"/>
<path opacity="0.5" fill-rule="evenodd" clip-rule="evenodd" fill="#FFFFFF" d="M2370.8,619.6c0-1.5,1.1-2.7,2.6-2.8
	c1.5,0,2.7,1.1,2.8,2.6c0,1.5-1.1,2.7-2.6,2.8C2372.1,622.3,2370.9,621.1,2370.8,619.6z"/>
<path fill-rule="evenodd" clip-rule="evenodd" fill="#FFFFFF" d="M2028.4,339.6c0-1.5,1.1-2.7,2.6-2.8c1.5,0,2.7,1.1,2.8,2.6
	c0,1.5-1.1,2.7-2.6,2.8C2029.7,342.2,2028.5,341.1,2028.4,339.6z"/>
<path opacity="0.5" fill-rule="evenodd" clip-rule="evenodd" fill="#FFFFFF" d="M2408.1,936.7c0-1.5,1.1-2.7,2.6-2.8
	c1.5,0,2.7,1.1,2.8,2.6c0,1.5-1.1,2.7-2.6,2.8C2409.4,939.4,2408.1,938.2,2408.1,936.7z"/>
<path fill-rule="evenodd" clip-rule="evenodd" fill="#FFFFFF" d="M2402.6,336.7c-0.1-2.2,1.7-4.1,3.9-4.1s4.1,1.7,4.1,3.9
	c0.1,2.2-1.7,4.1-3.9,4.1C2404.5,340.7,2402.6,338.9,2402.6,336.7z"/>
<path fill-rule="evenodd" clip-rule="evenodd" fill="#FFFFFF" d="M1558.7,101.6c-0.1-2.2,1.7-4.1,3.9-4.1c2.2-0.1,4.1,1.7,4.1,3.9
	c0.1,2.2-1.7,4.1-3.9,4.1C1560.6,105.6,1558.8,103.8,1558.7,101.6z"/>
<path opacity="0.5" fill-rule="evenodd" clip-rule="evenodd" fill="#FFFFFF" d="M2134.5,700.9c0.7,1.6,0,3.6-1.7,4.3s-3.6,0-4.3-1.7
	c-0.7-1.6,0-3.6,1.7-4.3S2133.8,699.2,2134.5,700.9z"/>
<ellipse transform="matrix(9.491862e-02 -0.9955 0.9955 9.491862e-02 -316.0167 1376.0275)" fill-rule="evenodd" clip-rule="evenodd" fill="#FFFFFF" cx="598.7" cy="861.8" rx="4.7" ry="4.7"/>
<path fill-rule="evenodd" clip-rule="evenodd" fill="#FFFFFF" d="M670,503.1c-1-2.4,0.1-5.2,2.6-6.2c2.4-1,5.2,0.1,6.2,2.6
	c1,2.4-0.1,5.2-2.6,6.2C673.7,506.6,671,505.5,670,503.1z"/>
<path fill-rule="evenodd" clip-rule="evenodd" fill="#FFFFFF" d="M269.8,649.6c-1-2.4,0.1-5.2,2.6-6.2c2.4-1,5.2,0.1,6.2,2.6
	c1,2.4-0.1,5.2-2.6,6.2C273.6,653.2,270.8,652,269.8,649.6z"/>
<ellipse transform="matrix(0.3851 -0.9229 0.9229 0.3851 -270.9808 926.9704)" fill-rule="evenodd" clip-rule="evenodd" fill="#FFFFFF" cx="560.1" cy="666.8" rx="4" ry="4"/>
<path opacity="0.5" fill-rule="evenodd" clip-rule="evenodd" fill="#FFFFFF" d="M128,148.2c-0.8-2,0.1-4.4,2.2-5.2
	c2-0.8,4.4,0.1,5.2,2.2c0.8,2-0.1,4.4-2.2,5.2C131.2,151.3,128.9,150.3,128,148.2z"/>
</svg>
