<?xml version="1.0" encoding="UTF-8"?>
<!DOCTYPE svg PUBLIC "-//W3C//DTD SVG 1.1//EN" "http://www.w3.org/Graphics/SVG/1.1/DTD/svg11.dtd">
<svg xmlns="http://www.w3.org/2000/svg" xml:space="preserve" width="1920px" height="1080px" version="1.1" style="shape-rendering:geometricPrecision; text-rendering:geometricPrecision; image-rendering:optimizeQuality; fill-rule:evenodd; clip-rule:evenodd"
viewBox="0 0 1920 1080"
 xmlns:xlink="http://www.w3.org/1999/xlink"
 xmlns:xodm="http://www.corel.com/coreldraw/odm/2003">
 <defs>
  <style type="text/css">
   <![CDATA[
    .fil1 {fill:#FFEE7D}
    .fil2 {fill:#FFC223;fill-rule:nonzero}
    .fil3 {fill:#FFD441;fill-rule:nonzero}
    .fil0 {fill:#FFDE55;fill-rule:nonzero}
    .fil4 {fill:#FFE875;fill-rule:nonzero}
   ]]>
  </style>
 </defs>
 <g id="Moon_x0020_surface">
  <metadata id="CorelCorpID_0Corel-Layer"/>
  <g id="Moon">
   <path id="Surface" class="fil0" d="M1920 877.93c-246.63,-69.98 -564.11,-112.1 -910.61,-112.1 -394.72,0 -751.82,54.66 -1009.39,142.89l0 171.28 1920 0 0 -202.07z"/>
   <path id="Glow" class="fil1" d="M0 908.71l0 101.14c505.67,-269.46 1375.47,-273.84 1920,-111.6l0 -20.32c-578.68,-164.09 -1353.61,-162.6 -1920,30.78z"/>
   <g id="Craters">
    <path class="fil2" d="M1128.6 947.13c-18.83,0 -34.09,-6.15 -34.09,-13.74 0,-7.59 15.26,-13.75 34.09,-13.75l0 0c0.03,0 0.07,0 0.1,0l0 0c-0.03,0 -0.07,0 -0.1,0 -1.46,0 -2.88,0.05 -4.29,0.11 2.22,0.13 4.37,0.32 6.43,0.6 -13.57,1.81 -23.37,6.96 -23.37,13.04 0,6.08 9.8,11.23 23.37,13.04 -2.06,0.27 -4.21,0.48 -6.43,0.59 1.41,0.07 2.83,0.11 4.29,0.11zm561.52 -36.48c-27.17,0 -49.2,-6.3 -49.2,-14.09 0,-7.78 22.03,-14.09 49.2,-14.09l0 0c-2.09,0 -4.15,0.04 -6.17,0.11 3.2,0.12 6.29,0.32 9.27,0.6 -19.6,1.86 -33.74,7.15 -33.74,13.38 0,6.23 14.14,11.52 33.74,13.38 -2.98,0.28 -6.07,0.48 -9.27,0.6 2.02,0.08 4.08,0.11 6.17,0.11zm-1372.92 115.82c-32.06,0 -61.79,-2.87 -86.21,-7.76 -0.2,-0.04 -0.39,-0.07 -0.59,-0.12 -0.07,-0.02 -0.14,-0.03 -0.21,-0.04 -38.47,-7.81 -63.57,-20.66 -63.57,-35.21 0,-23.81 67.42,-43.13 150.58,-43.13l0 0c-6.41,0 -12.72,0.14 -18.92,0.35 9.79,0.36 19.28,0.98 28.39,1.84 -59.96,5.69 -103.24,21.87 -103.24,40.94 0,19.09 43.28,35.27 103.24,40.95 -9.11,0.86 -18.6,1.48 -28.39,1.83 6.2,0.23 12.51,0.35 18.92,0.35zm1372.92 7.11c-0.04,0 -0.08,0 -0.13,0 0.05,0 0.09,0 0.13,0zm-324.31 -40.26c-0.02,0 -0.06,0 -0.1,0 0.04,0 0.08,0 0.1,0zm-0.1 0c-13.72,-0.03 -24.84,-3.21 -24.84,-7.15 0,-3.95 11.18,-7.14 24.94,-7.14l0 0c-1.06,0 -2.1,0.01 -3.14,0.05 1.64,0.06 3.2,0.17 4.72,0.3 -9.94,0.95 -17.1,3.62 -17.1,6.79 0,3.16 7.16,5.83 17.1,6.78 -1.52,0.15 -3.08,0.25 -4.72,0.31 1.01,0.03 2.02,0.04 3.04,0.06zm-627.73 -82.47c-0.03,0 -0.07,0 -0.1,0 0.03,0 0.07,0 0.1,0zm-0.1 0c-13.73,-0.01 -24.84,-3.21 -24.84,-7.15 0,-3.94 11.16,-7.14 24.94,-7.14l0 0c-1.07,0 -2.11,0.03 -3.14,0.06 1.62,0.06 3.2,0.16 4.71,0.31 -9.94,0.93 -17.11,3.62 -17.11,6.77 0,3.16 7.17,5.85 17.11,6.78 -1.51,0.15 -3.09,0.25 -4.71,0.31 1,0.03 2.01,0.06 3.04,0.06zm-181.71 -7.15c-30.61,0 -55.41,-7.1 -55.41,-15.87 0,-8.76 24.8,-15.87 55.41,-15.87l0 0c-2.36,0 -4.68,0.05 -6.97,0.13 3.61,0.13 7.1,0.36 10.45,0.67 -22.06,2.1 -37.99,8.05 -37.99,15.07 0,7.03 15.93,12.98 37.99,15.07 -3.35,0.32 -6.84,0.55 -10.45,0.67 2.29,0.09 4.61,0.13 6.97,0.13zm435.9 -24.23c-42.99,0 -78.05,-9.73 -79.8,-21.92 -0.05,-0.32 -0.07,-0.64 -0.07,-0.96 0,-12.63 35.76,-22.87 79.87,-22.87l0 0c-3.4,0 -6.75,0.07 -10.04,0.18 5.19,0.19 10.23,0.52 15.06,0.98 -31.8,3.01 -54.76,11.59 -54.76,21.71 0,10.12 22.95,18.7 54.76,21.72 -4.83,0.46 -9.87,0.79 -15.06,0.97 3.29,0.12 6.64,0.19 10.04,0.19zm473.37 53.92c-69.56,0 -126.22,-15.82 -128.51,-35.58 -0.05,-0.42 -0.07,-0.84 -0.07,-1.25 0,-20.34 57.56,-36.83 128.58,-36.83l0 0c-5.49,0 -10.87,0.11 -16.17,0.3 8.35,0.3 16.47,0.83 24.25,1.57 -51.21,4.85 -88.16,18.67 -88.16,34.96 0,16.29 36.95,30.11 88.16,34.97 -7.78,0.73 -15.9,1.26 -24.25,1.56 5.3,0.19 10.68,0.3 16.17,0.3zm0.38 -73.66l0 0zm-211.11 -3.14c-0.05,0 -0.12,0 -0.17,0 0.06,0 0.11,0 0.17,0zm-0.17 0c-24.96,-0.03 -45.16,-8.19 -45.24,-18.24 0,-0.02 0,-0.04 0,-0.06 0,-10.09 20.23,-18.26 45.24,-18.3 -1.87,0 -3.72,0.05 -5.53,0.14 2.95,0.15 5.82,0.42 8.57,0.78 -18.09,2.42 -31.14,9.28 -31.14,17.38 0,8.1 13.05,14.96 31.14,17.37 -2.76,0.37 -5.62,0.63 -8.57,0.78 1.81,0.1 3.66,0.15 5.53,0.15zm0 -36.6c0.05,0 0.12,0 0.17,0l0 0c0.05,0 0.1,0 0.14,0l0 0c-0.04,0 -0.09,0 -0.14,0 -0.06,0 -0.11,0 -0.17,0zm435.45 213.59c-18.78,-0.03 -33.96,-6.17 -33.96,-13.74 0,-7.57 15.2,-13.71 33.96,-13.74 -1.4,0.01 -2.79,0.05 -4.15,0.12 2.21,0.11 4.36,0.3 6.43,0.58 -13.58,1.81 -23.37,6.96 -23.37,13.04 0,6.07 9.8,11.24 23.37,13.05 -2.07,0.26 -4.22,0.47 -6.43,0.58 1.36,0.07 2.74,0.11 4.15,0.11zm0 -27.48c0.05,0 0.09,0 0.13,0l0 0c0.04,0 0.08,0 0.11,0l0 0c-0.03,0 -0.07,0 -0.11,0 -0.04,0 -0.08,0 -0.13,0zm-941.51 47.42c-0.06,0 -0.11,0 -0.17,0 0.06,0 0.11,0 0.17,0zm-0.17 0c-45.62,-0.04 -82.66,-14.81 -83.38,-33.13 0,-0.19 -0.01,-0.37 -0.01,-0.55 0,-18.58 37.32,-33.63 83.39,-33.67 -3.5,0 -6.95,0.1 -10.33,0.27 5.43,0.28 10.7,0.77 15.75,1.43 -33.27,4.44 -57.28,17.07 -57.28,31.97 0,14.89 24.01,27.53 57.28,31.96 -5.05,0.68 -10.32,1.17 -15.75,1.44 3.38,0.17 6.82,0.28 10.33,0.28zm0 -67.35c0.06,0 0.11,0 0.17,0l0 0c-0.06,0 -0.11,0 -0.17,0zm1076.79 20.9c-47.37,0 -85.77,-11 -85.77,-24.57 0,-13.57 38.4,-24.56 85.77,-24.56l0 0c-3.65,0 -7.24,0.07 -10.78,0.19 5.58,0.21 10.99,0.56 16.17,1.06 -34.14,3.23 -58.8,12.45 -58.8,23.31 0,10.88 24.66,20.09 58.8,23.33 -5.18,0.49 -10.59,0.84 -16.17,1.05 3.54,0.12 7.13,0.19 10.78,0.19z"/>
    <path class="fil3" d="M1693.22 909.94c-19.6,-1.86 -33.74,-7.15 -33.74,-13.38 0,-6.23 14.14,-11.52 33.74,-13.38 19.59,1.86 33.75,7.15 33.75,13.38 0,6.23 -14.16,11.52 -33.75,13.38zm-953.67 0.54c-9.94,-0.93 -17.11,-3.62 -17.11,-6.78 0,-3.15 7.17,-5.84 17.11,-6.77 -1.51,-0.15 -3.09,-0.25 -4.71,-0.31 1.03,-0.03 2.07,-0.06 3.14,-0.06l0 0c1.61,0 3.18,0.05 4.7,0.13 -1.07,0.05 -2.12,0.14 -3.13,0.24 9.93,0.93 17.1,3.62 17.1,6.77 0,3.16 -7.17,5.85 -17.1,6.78 1.01,0.1 2.06,0.19 3.13,0.23 -1.52,0.09 -3.09,0.14 -4.7,0.14l0 0 0 0c-0.03,0 -0.07,0 -0.1,0 0,0 0,0 0,0 -1.03,0 -2.04,-0.03 -3.04,-0.06 1.62,-0.06 3.2,-0.16 4.71,-0.31zm-422.35 115.99c-32.06,0 -61.79,-2.87 -86.21,-7.76 24.42,4.89 54.15,7.76 86.21,7.76l0 0zm9.47 -2.18c-59.96,-5.68 -103.24,-21.86 -103.24,-40.95 0,-19.07 43.28,-35.25 103.24,-40.94 59.98,5.69 103.26,21.86 103.26,40.94 0,19.09 -43.28,35.27 -103.26,40.95zm-96.27 -5.7c-0.07,-0.02 -0.14,-0.03 -0.21,-0.04 0.07,0.01 0.14,0.02 0.21,0.04zm-63.78 -35.25l0 0c0,-23.81 67.42,-43.13 150.58,-43.13 0.15,0 0.3,0 0.45,0l0 0c-0.15,0 -0.3,0 -0.45,0l0 0c-83.16,0 -150.58,19.32 -150.58,43.13zm293.39 -13.7c0,0 0,-0.01 -0.01,-0.01 0.01,0 0.01,0.01 0.01,0.01zm-0.07 -0.06c-16.25,-13.83 -56.29,-24.52 -106.17,-28.08 49.88,3.56 89.92,14.25 106.17,28.08zm-107.37 -28.16c-2.42,-0.17 -4.86,-0.32 -7.32,-0.45 2.46,0.13 4.9,0.28 7.32,0.45zm-8.02 -0.49c-3.69,-0.19 -7.42,-0.35 -11.2,-0.47 3.78,0.12 7.51,0.28 11.2,0.47zm403.93 112.59c-0.06,0 -0.11,0 -0.17,0l0 0c0.06,0 0.11,0 0.17,0l0 0zm-0.17 0c-45.62,-0.04 -82.66,-14.81 -83.38,-33.13 0.72,18.32 37.76,33.09 83.38,33.13l0 0zm5.42 -1.72c-33.27,-4.43 -57.28,-17.07 -57.28,-31.96 0,-14.9 24.01,-27.53 57.28,-31.97 33.28,4.44 57.3,17.07 57.3,31.97 0,14.91 -24.02,27.53 -57.3,31.96zm-88.81 -31.96l0 0c0,-18.58 37.32,-33.63 83.39,-33.67l0 0c-46.07,0.04 -83.39,15.09 -83.39,33.67zm88.79 -33.61c-1.73,-0.04 -3.48,-0.06 -5.23,-0.06l0 0c-0.06,0 -0.11,0 -0.17,0l0 0c0.06,0 0.11,0 0.17,0 1.75,0 3.5,0.02 5.23,0.06zm-194.06 -83.33c-22.06,-2.09 -37.99,-8.04 -37.99,-15.07 0,-7.02 15.93,-12.97 37.99,-15.07 22.07,2.1 38,8.05 38,15.07 0,7.03 -15.93,12.98 -38,15.07zm-58.89 -15.07l0 0c0,-8.76 24.8,-15.87 55.41,-15.87 25.73,0 47.36,5.03 53.6,11.83 -6.24,-6.8 -27.87,-11.83 -53.6,-11.83l0 0c-30.61,0 -55.41,7.11 -55.41,15.87zm491.31 -8.36c-42.99,0 -78.05,-9.73 -79.8,-21.92 1.75,12.19 36.81,21.92 79.8,21.92l0 0zm5.02 -1.16c-31.81,-3.02 -54.76,-11.6 -54.76,-21.72 0,-10.12 22.96,-18.7 54.76,-21.71 31.82,3.01 54.77,11.59 54.77,21.71 0,10.13 -22.96,18.71 -54.77,21.72zm-84.89 -21.72l0 0c0,-12.63 35.76,-22.87 79.87,-22.87 0.95,0 1.89,0 2.83,0.01 -0.94,-0.01 -1.88,-0.01 -2.83,-0.01l0 0c-44.11,0 -79.87,10.24 -79.87,22.87zm218.54 89.84c-13.57,-1.81 -23.37,-6.96 -23.37,-13.04 0,-6.08 9.8,-11.23 23.37,-13.04 13.59,1.81 23.38,6.96 23.38,13.04 0,6.08 -9.8,11.23 -23.38,13.04zm123.97 -89.84c-0.05,0 -0.12,0 -0.17,0l0 0c0.05,0 0.12,0 0.17,0l0 0zm-0.17 0c-24.96,-0.03 -45.16,-8.19 -45.24,-18.24 0.08,10.05 20.28,18.21 45.24,18.24l0 0zm3.04 -0.93c-18.09,-2.41 -31.14,-9.27 -31.14,-17.37 0,-8.1 13.05,-14.96 31.14,-17.38 18.08,2.42 31.13,9.28 31.13,17.38 0,8.1 -13.05,14.97 -31.13,17.37zm-48.28 -17.37l0 0c0,-10.09 20.23,-18.26 45.24,-18.3l0 0c-25.01,0.04 -45.24,8.21 -45.24,18.3zm45.24 -18.3c0.05,0 0.12,0 0.17,0l0 0c-0.05,0 -0.12,0 -0.17,0l0 0zm210.9 113.4c-69.56,0 -126.22,-15.82 -128.51,-35.58 2.29,19.76 58.95,35.58 128.51,35.58l0 0zm8.08 -1.86c-51.21,-4.86 -88.16,-18.68 -88.16,-34.97 0,-16.29 36.95,-30.11 88.16,-34.96 51.22,4.85 88.17,18.67 88.17,34.96 0,16.29 -36.95,30.11 -88.17,34.97zm-136.66 -34.97l0 0c0,-20.34 57.56,-36.83 128.58,-36.83 49.99,0 93.33,8.18 114.58,20.11 -21.21,-11.9 -64.37,-20.06 -114.2,-20.11l0 0c-0.13,0 -0.26,0 -0.38,0l0 0c-71.02,0 -128.58,16.49 -128.58,36.83zm28.95 96.76l0 0c-0.02,0 -0.06,0 -0.1,0l0 0c-1.02,-0.02 -2.03,-0.03 -3.04,-0.06 1.64,-0.06 3.2,-0.16 4.72,-0.31 -9.94,-0.95 -17.1,-3.62 -17.1,-6.78 0,-3.17 7.16,-5.84 17.1,-6.79 -1.52,-0.13 -3.08,-0.24 -4.72,-0.3 1.04,-0.04 2.08,-0.05 3.14,-0.05l0 0c1.61,0 3.19,0.04 4.72,0.12 -1.09,0.06 -2.14,0.14 -3.14,0.23 9.93,0.95 17.1,3.62 17.1,6.79 0,3.16 -7.17,5.83 -17.1,6.78 1,0.1 2.05,0.17 3.14,0.23 -1.53,0.09 -3.11,0.14 -4.72,0.14l0 0zm464.68 12.51c-34.14,-3.24 -58.8,-12.45 -58.8,-23.33 0,-10.86 24.66,-20.08 58.8,-23.31 34.16,3.23 58.82,12.44 58.82,23.31 0,10.88 -24.66,20.09 -58.82,23.33zm80.37 -23.33c0,-13.57 -38.39,-24.56 -85.76,-24.56l0 0c-47.37,0 -85.77,10.99 -85.77,24.56l0 0c0,-13.57 38.4,-24.56 85.77,-24.56 47.37,0 85.76,10.99 85.76,24.56l0 0zm-218.59 50.39c-13.57,-1.81 -23.37,-6.98 -23.37,-13.05 0,-6.08 9.79,-11.23 23.37,-13.04 13.59,1.81 23.38,6.96 23.38,13.04 0,6.08 -9.79,11.24 -23.38,13.05zm31.96 -13.05c0,-7.57 -15.22,-13.72 -34,-13.74l0 0c18.78,0.02 34,6.17 34,13.74l0 0zm-68.2 0l0 0c0,-7.57 15.2,-13.71 33.96,-13.74l0 0c-18.76,0.03 -33.96,6.17 -33.96,13.74z"/>
    <path class="fil4" d="M737.98 910.85c1.61,0 3.18,-0.05 4.7,-0.14 -1.07,-0.04 -2.12,-0.13 -3.13,-0.23 9.93,-0.93 17.1,-3.62 17.1,-6.78 0,-3.15 -7.17,-5.84 -17.1,-6.77 1.01,-0.1 2.06,-0.19 3.13,-0.24 -1.52,-0.08 -3.09,-0.13 -4.7,-0.13 13.77,0 24.94,3.2 24.94,7.14 0,3.95 -11.17,7.15 -24.94,7.15zm-420.78 115.62c9.71,0 19.2,-0.27 28.4,-0.78 -6.46,-0.35 -12.78,-0.82 -18.93,-1.4 59.98,-5.68 103.26,-21.86 103.26,-40.95 0,-19.08 -43.28,-35.25 -103.26,-40.94 6.15,-0.58 12.47,-1.06 18.93,-1.41 -9.05,-0.5 -18.39,-0.77 -27.94,-0.78 0.33,0 0.66,0 1,0 4.96,0.01 9.86,0.1 14.69,0.25 3.78,0.12 7.51,0.28 11.2,0.47 0.23,0.01 0.47,0.02 0.7,0.04 2.46,0.13 4.9,0.28 7.32,0.45 0.4,0.02 0.8,0.04 1.2,0.08 49.88,3.56 89.92,14.25 106.17,28.08 0.02,0.01 0.04,0.03 0.06,0.05 0.01,0 0.01,0.01 0.01,0.01 5.04,4.3 7.77,8.92 7.77,13.7 0,23.83 -67.42,43.13 -150.58,43.13zm0.45 -86.26c-0.15,0 -0.3,0 -0.45,0 0.15,0 0.3,0 0.45,0zm430.83 113.31c5.39,0 10.65,-0.22 15.76,-0.61 -3.59,-0.28 -7.1,-0.65 -10.51,-1.11 33.28,-4.43 57.3,-17.05 57.3,-31.96 0,-14.9 -24.02,-27.53 -57.3,-31.97 3.41,-0.44 6.92,-0.82 10.51,-1.09 -5.11,-0.4 -10.37,-0.61 -15.76,-0.61 1.75,0 3.5,0.02 5.23,0.06 43.71,1.1 78.32,15.73 78.32,33.61 0,18.6 -37.41,33.68 -83.55,33.68zm-0.17 0l0 0c0,0 0,0 0,0l0 0c0,0 0,0 0,0zm0 -67.35l0 0 0 0zm-192.14 -82.47c0.05,0 0.1,0 0.16,0 -0.06,0 -0.11,0 -0.16,0zm0.17 0c3.51,0 6.95,-0.1 10.28,-0.29 -2.38,-0.12 -4.7,-0.3 -6.97,-0.51 22.07,-2.09 38,-8.04 38,-15.07 0,-7.02 -15.93,-12.97 -38,-15.07 2.26,-0.21 4.59,-0.38 6.97,-0.51 -3.39,-0.19 -6.88,-0.29 -10.45,-0.29 25.73,0 47.36,5.03 53.6,11.83 1.18,1.29 1.81,2.65 1.81,4.04 0,8.76 -24.72,15.85 -55.24,15.87zm435.73 -24.23c5.15,0 10.18,-0.15 15.07,-0.41 -3.44,-0.19 -6.79,-0.44 -10.05,-0.75 31.81,-3.01 54.77,-11.59 54.77,-21.72 0,-10.12 -22.95,-18.7 -54.77,-21.71 3.26,-0.31 6.61,-0.56 10.05,-0.75 -4.89,-0.27 -9.92,-0.41 -15.07,-0.41 0.95,0 1.89,0 2.83,0.01 42.8,0.43 77.04,10.5 77.04,22.86 0,12.64 -35.76,22.88 -79.87,22.88zm473.37 53.92c8.28,0 16.38,-0.24 24.25,-0.66 -5.54,-0.3 -10.93,-0.71 -16.17,-1.2 51.22,-4.86 88.17,-18.68 88.17,-34.97 0,-16.29 -36.95,-30.11 -88.17,-34.96 5.24,-0.5 10.63,-0.9 16.17,-1.2 -7.74,-0.43 -15.71,-0.66 -23.87,-0.67 49.83,0.05 92.99,8.21 114.2,20.11 8.94,5.02 13.98,10.71 13.98,16.72 0,20.34 -57.57,36.83 -128.56,36.83zm0.38 -73.66c-0.13,0 -0.26,0 -0.38,0 0.12,0 0.25,0 0.38,0zm-210.97 -3.14c2.88,0 5.7,-0.12 8.43,-0.33 -1.95,-0.15 -3.86,-0.35 -5.7,-0.6 18.08,-2.4 31.13,-9.27 31.13,-17.37 0,-8.1 -13.05,-14.96 -31.13,-17.38 1.84,-0.24 3.75,-0.44 5.7,-0.59 -2.69,-0.21 -5.45,-0.33 -8.29,-0.33 0.35,0 0.69,0 1.04,0 24.47,0.29 44.1,8.37 44.1,18.3 0,10.09 -20.26,18.27 -45.28,18.3zm-0.31 0l0 0zm0.41 -36.6c-0.04,0 -0.06,0 -0.1,0 0.04,0 0.06,0 0.1,0zm-0.41 0l0 0zm-125.84 127.14c2.16,0 4.28,-0.09 6.33,-0.25 -1.47,-0.12 -2.9,-0.26 -4.29,-0.45 13.58,-1.81 23.38,-6.96 23.38,-13.04 0,-6.08 -9.79,-11.23 -23.38,-13.04 1.4,-0.2 2.83,-0.34 4.29,-0.45 -2.05,-0.16 -4.17,-0.24 -6.33,-0.26 18.78,0.03 33.99,6.18 33.99,13.75 0,7.58 -15.21,13.71 -33.99,13.74zm561.42 -36.48c3.18,0 6.29,-0.08 9.28,-0.25 -2.12,-0.11 -4.17,-0.27 -6.18,-0.46 19.59,-1.86 33.75,-7.15 33.75,-13.38 0,-6.23 -14.16,-11.52 -33.75,-13.38 2.02,-0.19 4.06,-0.34 6.18,-0.46 -2.99,-0.16 -6.1,-0.25 -9.28,-0.25 27.18,0 49.21,6.31 49.21,14.09 0,7.79 -22.03,14.09 -49.21,14.09zm134.98 96.42c5.53,0 10.93,-0.16 16.18,-0.44 -3.69,-0.2 -7.29,-0.47 -10.79,-0.8 34.16,-3.24 58.82,-12.45 58.82,-23.33 0,-10.87 -24.66,-20.08 -58.82,-23.31 3.5,-0.34 7.1,-0.61 10.79,-0.81 -5.25,-0.28 -10.65,-0.44 -16.18,-0.44 47.37,0 85.76,10.99 85.76,24.56 0,13.57 -38.39,24.57 -85.76,24.57zm-134.87 26.51c0.04,0 0.06,0 0.1,0 -0.04,0 -0.06,0 -0.1,0zm0.1 0c2.14,0 4.22,-0.09 6.23,-0.24 -1.46,-0.12 -2.89,-0.27 -4.29,-0.45 13.59,-1.81 23.38,-6.97 23.38,-13.05 0,-6.08 -9.79,-11.23 -23.38,-13.04 1.39,-0.19 2.83,-0.34 4.29,-0.45 -2.05,-0.15 -4.16,-0.24 -6.33,-0.25 18.78,0.02 34,6.17 34,13.74 0,7.55 -15.16,13.69 -33.9,13.74zm-324.52 -40.26c1.61,0 3.19,-0.05 4.72,-0.14 -1.09,-0.06 -2.14,-0.13 -3.14,-0.23 9.93,-0.95 17.1,-3.62 17.1,-6.78 0,-3.17 -7.17,-5.84 -17.1,-6.79 1,-0.09 2.05,-0.17 3.14,-0.23 -1.53,-0.08 -3.11,-0.12 -4.72,-0.12 13.78,0 24.95,3.19 24.95,7.14 0,3.94 -11.17,7.15 -24.95,7.15z"/>
   </g>
  </g>
 </g>
</svg>
